<svg xmlns="http://www.w3.org/2000/svg" viewBox="0 0 293.38 74.89"><defs><style>.cls-1,.cls-4{fill:none;}.cls-1{stroke:#231f20;stroke-width:0.25px;}.cls-1,.cls-2,.cls-4{stroke-miterlimit:10;}.cls-2{fill:#19b24b;stroke:#fff;}.cls-3{fill:#fff;}.cls-4{stroke:#19b24b;stroke-width:2px;}.cls-5{fill:#545456;}</style></defs><title>ec</title><g id="Layer_2" data-name="Layer 2"><g id="Layer_1-2" data-name="Layer 1"><line class="cls-1" x1="98.79" y1="42.75" x2="275.97" y2="42.75"/><path d="M9.73,52.89C4.12,48.28,1.66,42.59,2,35.77c.13-2.48,1.86-4.41,3.76-5.82C8.39,28,11.22,26.4,14,24.75c.84-.5,1.33-.84,1.18-2-.31-2.29,1.11-3.66,3-4.65a42.4,42.4,0,0,1,11.94-4.27c10.91-2.12,21.35-.87,31,4.92a89.92,89.92,0,0,1,7.94,6l-.25.53-2.82-.14c5.55,5.38,7.78,11.6,6.16,19.16l-.52-.29-.31-.19c-.38,3.4-.86,6.74-3.23,9.7l-.87-3.12C63,57.4,56,58.91,49.55,61.33l-.31-.27,2.31-4c-7,3.63-14,5.75-21.94,4.52l.8-.72.85-.66c-4,0-7.55-.27-11.12-2.05A31.73,31.73,0,0,0,23.5,57a28.51,28.51,0,0,0,4-2.23,3.09,3.09,0,0,0,1.4-3.47A3.16,3.16,0,0,0,26,48.69c-2.79-.3-5.58-.56-8.38-.68a35.11,35.11,0,0,0-5,.26c-2.2.22-2.45.53-2.7,2.73C9.84,51.52,9.8,52,9.73,52.89Zm30.73-8.11a10.43,10.43,0,0,1-3.93,7.46C34.4,54,32.11,55.6,30,57.16a24.66,24.66,0,0,0,16.15-9c-.38,4.66-3.45,7.31-6.82,9.8,2.11-.57,4.16-1.19,6.16-1.94,4.68-1.75,9.08-3.92,12.07-8.16a8.17,8.17,0,0,0,1.72-6.64,21.52,21.52,0,0,0-3.61-7.55c-.18-.27-.34-.56-.51-.85l.36-.19c3,2.91,5.29,6.2,5.79,10.56s-1.6,7.93-3.66,11.53c4.65-2.24,7.82-5.55,8-11.06l.46-.15L68.35,46a12.87,12.87,0,0,0-4.08-11.53c-1.19-1.12-2.4-2.2-3.59-3.31a5.48,5.48,0,0,1-.55-.72c3.15.53,5.46,2.48,7.86,4.27-2.25-5.73-7.09-8.91-12-12.06l.25-.41,3.9.29c-.47-.37-.58-.48-.7-.56-.55-.33-1.09-.67-1.65-1a36.86,36.86,0,0,0-14.28-4.51c-8.54-.82-16.6.5-24,5-1.39.84-1.57,1.49-.38,2.63a41.62,41.62,0,0,0,3.84,3,2.18,2.18,0,0,0,2.75,0c1.58-1.08,3.17-2.17,4.78-3.22a12.65,12.65,0,0,1,7.76-1.89c.39,0,1.09.69,1,.94a14.9,14.9,0,0,1-1,2.9C36.81,29.26,34.09,31,30.06,31c3.11,2.08,6,3.92,7.56,7.23,1.64,3.54.82,6.67-1.71,9.54l.36.24ZM8.25,48.43c1.19-5.65,5-7.77,10.06-8.47a60.41,60.41,0,0,1,15.78,0,9.73,9.73,0,0,0,1.08,0l.28-.38A12.78,12.78,0,0,0,33.16,37c-3.43-2.21-7-4.23-10.43-6.41C21,29.51,19.3,28.18,17.55,27a1.65,1.65,0,0,0-1.36-.25c-3.12,1.76-6.29,3.47-9.25,5.48a5.72,5.72,0,0,0-2.69,6c.13.77.17,1.57.31,2.34A16.6,16.6,0,0,0,8.25,48.43Zm26.6-6c-2.34-.25-4.68-.56-7-.74a32.83,32.83,0,0,0-11.87,1.1,8.1,8.1,0,0,0-4.59,3.32c3.35-.23,6.54-.63,9.72-.59a36.08,36.08,0,0,1,8,1C32.23,47.31,34.47,46,34.85,42.46Zm-2.2-13.13a5,5,0,0,0,4.43-4.25c-1.29-.64-1.54-.56-2,.31C34.27,26.77,33.41,28.1,32.65,29.33Z"/><path class="cls-2" d="M40.46,44.78,36.27,48l-.36-.24c2.53-2.87,3.35-6,1.71-9.54-1.52-3.31-4.45-5.15-7.56-7.23,4,0,6.75-1.73,8.24-5.22a14.9,14.9,0,0,0,1-2.9c0-.25-.65-.92-1-.94a12.65,12.65,0,0,0-7.76,1.89C28.9,24.87,27.31,26,25.73,27a2.18,2.18,0,0,1-2.75,0,41.62,41.62,0,0,1-3.84-3c-1.19-1.14-1-1.79.38-2.63,7.43-4.49,15.49-5.81,24-5A36.86,36.86,0,0,1,57.83,21c.56.31,1.1.65,1.65,1,.12.08.23.19.7.56l-3.9-.29-.25.41c4.87,3.15,9.71,6.33,12,12.06-2.4-1.79-4.71-3.74-7.86-4.27a5.48,5.48,0,0,0,.55.72c1.19,1.11,2.4,2.19,3.59,3.31A12.87,12.87,0,0,1,68.35,46l-2.17-2.48-.46.15c-.23,5.51-3.4,8.82-8,11.06,2.06-3.6,4.16-7.13,3.66-11.53s-2.79-7.65-5.79-10.56l-.36.19c.17.29.33.58.51.85a21.52,21.52,0,0,1,3.61,7.55,8.17,8.17,0,0,1-1.72,6.64c-3,4.24-7.39,6.41-12.07,8.16-2,.75-4,1.37-6.16,1.94,3.37-2.49,6.44-5.14,6.82-9.8a24.66,24.66,0,0,1-16.15,9c2.09-1.56,4.38-3.15,6.51-4.92A10.43,10.43,0,0,0,40.46,44.78ZM22.36,26.22c.29-.08.47-.07.56-.16,3-3,6.82-4.17,10.84-4.9a11.61,11.61,0,0,0,1.74-.68C32.14,19.33,23.13,22.61,22.36,26.22Z"/><path class="cls-3" d="M32.65,29.33c.76-1.23,1.62-2.56,2.4-3.94.49-.87.74-.95,2-.31A5,5,0,0,1,32.65,29.33Z"/><path d="M22.36,26.22c.77-3.61,9.78-6.89,13.14-5.74a11.61,11.61,0,0,1-1.74.68c-4,.73-7.83,1.92-10.84,4.9C22.83,26.15,22.65,26.14,22.36,26.22Z"/><path d="M19.4,32.44c1,.1.58-2.1,2.08-1.15a1,1,0,0,1,.16.86,19.93,19.93,0,0,1-2,.94Z"/><circle class="cls-4" cx="37.44" cy="37.44" r="36.44"/><path class="cls-5" d="M83.33,17.64H94.1a7.92,7.92,0,0,1,.16,1.61,8.23,8.23,0,0,1-.16,1.67H87.19V25h5.49a9.44,9.44,0,0,1,.15,1.64,9.15,9.15,0,0,1-.15,1.66H87.19v5h7.1A8.53,8.53,0,0,1,94.44,35a8.91,8.91,0,0,1-.15,1.66h-11Z"/><path class="cls-5" d="M97.24,17.64c.33-.05.66-.08,1-.1s.64,0,1,0l.93,0c.31,0,.64.05,1,.1v9.85a27.21,27.21,0,0,0,.12,2.76,5.92,5.92,0,0,0,.48,1.9,2.34,2.34,0,0,0,1,1.1,3.43,3.43,0,0,0,1.68.36,3.35,3.35,0,0,0,1.66-.36,2.38,2.38,0,0,0,1-1.1,5.93,5.93,0,0,0,.47-1.9,27.21,27.21,0,0,0,.12-2.76V17.64c.35-.05.69-.08,1-.1l.93,0c.31,0,.64,0,1,0s.66.05,1,.1V28.31a17.51,17.51,0,0,1-.32,3.52A7,7,0,0,1,110,34.56a5.35,5.35,0,0,1-2.19,1.75,10.1,10.1,0,0,1-7,0,5.35,5.35,0,0,1-2.19-1.75,7,7,0,0,1-1.13-2.73,18.27,18.27,0,0,1-.32-3.52Z"/><path class="cls-5" d="M115.05,17.64a8.74,8.74,0,0,1,1.56-.15,9.44,9.44,0,0,1,1.64.15l7.33,12.09V17.64a11.74,11.74,0,0,1,1.82-.15,8.25,8.25,0,0,1,1.59.15v19a9,9,0,0,1-1.53.16,9.53,9.53,0,0,1-1.61-.16l-7.39-12.06V36.62a9.92,9.92,0,0,1-1.72.16,9.4,9.4,0,0,1-1.69-.16Z"/><path class="cls-5" d="M132.68,17.64a12.65,12.65,0,0,1,1.93-.15,13.21,13.21,0,0,1,1.95.15v19a13.1,13.1,0,0,1-1.93.16,12.82,12.82,0,0,1-1.95-.16Z"/><path class="cls-5" d="M148,36.93a8.6,8.6,0,0,1-3.7-.73,7,7,0,0,1-2.56-2.05,8.89,8.89,0,0,1-1.49-3.09,14.44,14.44,0,0,1-.49-3.89,14.82,14.82,0,0,1,.49-3.92,9,9,0,0,1,1.49-3.12,6.82,6.82,0,0,1,2.56-2.06,9.6,9.6,0,0,1,7.39,0,6.82,6.82,0,0,1,2.56,2.06,9,9,0,0,1,1.49,3.12,14.82,14.82,0,0,1,.49,3.92,14.44,14.44,0,0,1-.49,3.89,8.89,8.89,0,0,1-1.49,3.09,7,7,0,0,1-2.56,2.05A8.59,8.59,0,0,1,148,36.93Zm0-3.22c2.72,0,4.09-2.18,4.09-6.54a9.67,9.67,0,0,0-1-4.91A3.34,3.34,0,0,0,148,20.63q-4.14,0-4.14,6.54T148,33.71Zm8.7,4.39a14.82,14.82,0,0,1-.18,1.57,7.3,7.3,0,0,1-.42,1.51l-6.55-1c.05-.37.1-.68.13-.94a6.87,6.87,0,0,1,.14-.71q.08-.33.18-.66l.24-.73Z"/><path class="cls-5" d="M159.31,17.64c.33-.05.66-.08,1-.1s.64,0,1,0l.92,0c.32,0,.64.05,1,.1v9.85a27.21,27.21,0,0,0,.12,2.76,5.93,5.93,0,0,0,.47,1.9,2.31,2.31,0,0,0,1,1.1,3.39,3.39,0,0,0,1.67.36,3.32,3.32,0,0,0,1.66-.36,2.28,2.28,0,0,0,1-1.1,5.92,5.92,0,0,0,.48-1.9,27.21,27.21,0,0,0,.12-2.76V17.64c.35-.05.68-.08,1-.1l.92,0,1,0c.32,0,.65.05,1,.1V28.31a18.27,18.27,0,0,1-.32,3.52,6.87,6.87,0,0,1-1.14,2.73,5.22,5.22,0,0,1-2.19,1.75,10.08,10.08,0,0,1-7,0,5.22,5.22,0,0,1-2.19-1.75,6.87,6.87,0,0,1-1.14-2.73,18.3,18.3,0,0,1-.31-3.52Z"/><path class="cls-5" d="M177.12,17.64h10.76a7.92,7.92,0,0,1,.16,1.61,8.23,8.23,0,0,1-.16,1.67H181V25h5.49a8.59,8.59,0,0,1,.16,1.64,8.34,8.34,0,0,1-.16,1.66H181v5h7.1a7.78,7.78,0,0,1,.16,1.61,8.13,8.13,0,0,1-.16,1.66H177.12Z"/><path class="cls-5" d="M209.47,33a10.3,10.3,0,0,1,.57,1.52,10.69,10.69,0,0,1,.33,1.57,13.29,13.29,0,0,1-2.47.66,17.46,17.46,0,0,1-2.36.15,10,10,0,0,1-3.94-.72,7.77,7.77,0,0,1-2.83-2,8.7,8.7,0,0,1-1.73-3.1,12.57,12.57,0,0,1-.58-3.91,12.11,12.11,0,0,1,.61-3.92,9.06,9.06,0,0,1,1.75-3.12,8,8,0,0,1,2.82-2.06,9.27,9.27,0,0,1,3.82-.74,15.32,15.32,0,0,1,2.33.16,9.6,9.6,0,0,1,2.31.66,5.85,5.85,0,0,1-.31,1.54c-.18.5-.37,1-.58,1.52a12.62,12.62,0,0,0-1.64-.45,9.29,9.29,0,0,0-1.69-.13A4.74,4.74,0,0,0,202,22.28a7.52,7.52,0,0,0-1.36,4.89q0,6.44,5.46,6.44a9.8,9.8,0,0,0,1.72-.13A12,12,0,0,0,209.47,33Z"/><path class="cls-5" d="M217.65,17.64c.37-.05.72-.09,1.06-.11s.7,0,1.1,0,.7,0,1,0,.71.06,1.11.11l5.94,19a15.45,15.45,0,0,1-2.11.16,12.64,12.64,0,0,1-2-.16l-1-3.8h-6.28l-1.08,3.8a11.8,11.8,0,0,1-1.82.16,12.26,12.26,0,0,1-1.93-.16Zm4.22,12-2.19-8-2.29,8Z"/><path class="cls-5" d="M230,17.57c.8-.07,1.62-.13,2.45-.18s1.66-.06,2.51-.06a14.37,14.37,0,0,1,2.67.26,6.85,6.85,0,0,1,2.46,1,5.48,5.48,0,0,1,1.78,2,7.1,7.1,0,0,1,.69,3.35,7,7,0,0,1-.69,3.34,5.63,5.63,0,0,1-1.77,2,6.36,6.36,0,0,1-2.41,1,13.25,13.25,0,0,1-2.63.26h-.64l-.57,0v6.1a8.57,8.57,0,0,1-1,.1l-.92,0-.93,0a9.25,9.25,0,0,1-1-.1Zm3.85,9.76a4.27,4.27,0,0,0,.59.05h.67a5.21,5.21,0,0,0,1.3-.17,2.82,2.82,0,0,0,1.9-1.61,4,4,0,0,0,.29-1.6,4.15,4.15,0,0,0-.29-1.64,2.78,2.78,0,0,0-1.9-1.67,5.21,5.21,0,0,0-1.3-.17h-.54l-.72.07Z"/><path class="cls-5" d="M245.41,17.64a12.65,12.65,0,0,1,1.93-.15,13.21,13.21,0,0,1,1.95.15v19a13.1,13.1,0,0,1-1.93.16,12.82,12.82,0,0,1-2-.16Z"/><path class="cls-5" d="M256.68,20.92H252a9,9,0,0,1-.15-1.67,8.69,8.69,0,0,1,.15-1.61h13.33a7.92,7.92,0,0,1,.16,1.61,8.23,8.23,0,0,1-.16,1.67h-4.72v15.7l-.95.09c-.32,0-.63,0-.93,0l-1,0a9.37,9.37,0,0,1-1-.1Z"/><path class="cls-5" d="M270.5,17.64c.37-.05.73-.09,1.06-.11s.7,0,1.11,0,.69,0,1,0,.7.06,1.11.11l5.93,19a15.33,15.33,0,0,1-2.11.16,12.41,12.41,0,0,1-1.95-.16l-1.06-3.8h-6.28l-1.08,3.8a11.69,11.69,0,0,1-1.82.16,12.46,12.46,0,0,1-1.93-.16Zm4.23,12-2.19-8-2.3,8Z"/><path class="cls-5" d="M282.88,17.64a12.27,12.27,0,0,1,1.87-.15,13,13,0,0,1,1.93.15V33.29h6.57c.05.3.09.59.11.86s0,.53,0,.78,0,.56,0,.83-.06.56-.11.86H282.88Z"/><path class="cls-5" d="M84.19,49.58l.37,0h.76l.37,0V60.12l-.36.05h-.78l-.36-.05Z"/><path class="cls-5" d="M100,49.58l.35,0H101l.34,0L106,57.5V49.58l.36,0H107l.34,0V60.12l-.35.05h-.68l-.35-.05-4.6-7.87v7.87l-.35.05h-.73l-.33-.05Z"/><path class="cls-5" d="M120.72,49.58l.39,0H122l.41,0,2.67,9,2.65-9a7.32,7.32,0,0,1,.81,0h.4a2.29,2.29,0,0,1,.39,0l-3.43,10.54-.42.05h-.88l-.43-.05Z"/><path class="cls-5" d="M142.63,49.58h5.79a4.45,4.45,0,0,1,0,.65v.34a3.11,3.11,0,0,1,0,.32h-4.29v3h3.42a2.87,2.87,0,0,1,0,.31c0,.12,0,.23,0,.33s0,.22,0,.34a2.4,2.4,0,0,1,0,.32h-3.42v3.61h4.41a4.22,4.22,0,0,1,0,.64c0,.11,0,.22,0,.34a1.51,1.51,0,0,1,0,.32h-5.91Z"/><path class="cls-5" d="M162,58.53a9.93,9.93,0,0,0,1,.3,5.29,5.29,0,0,0,1.29.13,2.78,2.78,0,0,0,1.8-.49,1.63,1.63,0,0,0,.59-1.32,1.7,1.7,0,0,0-.13-.71,1.28,1.28,0,0,0-.37-.5,3,3,0,0,0-.62-.39c-.25-.12-.54-.24-.87-.38l-.84-.34a5.67,5.67,0,0,1-.78-.39,2.3,2.3,0,0,1-.6-.52,2.17,2.17,0,0,1-.41-.71,2.78,2.78,0,0,1-.14-1,2.59,2.59,0,0,1,.9-2.09,3.91,3.91,0,0,1,2.55-.75,7.18,7.18,0,0,1,1.34.12,6,6,0,0,1,1.11.29,4.59,4.59,0,0,1-.32,1.22,6.86,6.86,0,0,0-.92-.27,5.23,5.23,0,0,0-1.18-.12,2.33,2.33,0,0,0-1.42.38,1.32,1.32,0,0,0-.5,1.12,1.24,1.24,0,0,0,.13.55,1.34,1.34,0,0,0,.33.42,1.86,1.86,0,0,0,.48.33,5.3,5.3,0,0,0,.59.27l.82.32a9.28,9.28,0,0,1,1,.49,3.37,3.37,0,0,1,.78.6,2.33,2.33,0,0,1,.49.82,3.3,3.3,0,0,1,.17,1.1,3,3,0,0,1-1,2.38,4.44,4.44,0,0,1-2.92.87c-.3,0-.58,0-.82,0a6.25,6.25,0,0,1-.68-.09L162.2,60l-.6-.2a3.34,3.34,0,0,1,.13-.66C161.8,59,161.87,58.74,162,58.53Z"/><path class="cls-5" d="M183.74,50.89H181a3.11,3.11,0,0,1,0-.32c0-.12,0-.23,0-.34s0-.22,0-.33a3.11,3.11,0,0,1,0-.32h7c0,.1,0,.21,0,.31s0,.22,0,.32,0,.23,0,.35a3,3,0,0,1,0,.33h-2.74v9.23a5.58,5.58,0,0,1-.73.05,6.1,6.1,0,0,1-.77-.05Z"/><path class="cls-5" d="M201.66,49.58l.4,0h.88l.4,0,2.73,6.6,2.74-6.6.37,0H210l.4,0,.5,10.54-.36.05h-.75l-.34-.05-.34-8.19-2.58,6a3.86,3.86,0,0,1-.6,0,3.52,3.52,0,0,1-.56,0l-2.49-6-.34,8.23-.33.05h-.71l-.33-.05Z"/><path class="cls-5" d="M225.05,49.58h5.79a4.45,4.45,0,0,1,0,.65v.34a3.11,3.11,0,0,1,0,.32h-4.3v3H230a2.87,2.87,0,0,1,.05.31c0,.12,0,.23,0,.33s0,.22,0,.34a2.4,2.4,0,0,1-.05.32h-3.43v3.61H231a4.22,4.22,0,0,1,0,.64c0,.11,0,.22,0,.34a2.69,2.69,0,0,1,0,.32h-5.91Z"/><path class="cls-5" d="M244.63,49.58l.35,0h.68l.35,0,4.59,7.92V49.58l.36,0h.72l.34,0V60.12l-.35.05H251l-.34-.05L246,52.25v7.87l-.35.05H245l-.33-.05Z"/><path class="cls-5" d="M268.14,50.89H265.4a3.11,3.11,0,0,1,0-.32c0-.12,0-.23,0-.34s0-.22,0-.33a3.11,3.11,0,0,1,0-.32h7c0,.1,0,.21,0,.31s0,.22,0,.32,0,.23,0,.35a3,3,0,0,1,0,.33h-2.74v9.23a5.62,5.62,0,0,1-.74.05,6.06,6.06,0,0,1-.76-.05Z"/><path class="cls-5" d="M285.35,58.53a9.93,9.93,0,0,0,1,.3,5.29,5.29,0,0,0,1.29.13,2.78,2.78,0,0,0,1.8-.49,1.63,1.63,0,0,0,.59-1.32,1.88,1.88,0,0,0-.12-.71,1.42,1.42,0,0,0-.38-.5,2.76,2.76,0,0,0-.62-.39c-.25-.12-.54-.24-.87-.38l-.84-.34a5.67,5.67,0,0,1-.78-.39,2.3,2.3,0,0,1-.6-.52,2.17,2.17,0,0,1-.41-.71,3,3,0,0,1-.14-1,2.59,2.59,0,0,1,.9-2.09,3.93,3.93,0,0,1,2.56-.75,7.15,7.15,0,0,1,1.33.12,6,6,0,0,1,1.11.29,4.59,4.59,0,0,1-.32,1.22,6.86,6.86,0,0,0-.92-.27,5.23,5.23,0,0,0-1.18-.12,2.35,2.35,0,0,0-1.42.38,1.32,1.32,0,0,0-.5,1.12,1.24,1.24,0,0,0,.13.55,1.34,1.34,0,0,0,.33.42,2,2,0,0,0,.48.33,5.3,5.3,0,0,0,.59.27l.82.32a9.28,9.28,0,0,1,1,.49,3.37,3.37,0,0,1,.78.6,2.33,2.33,0,0,1,.49.82,3.3,3.3,0,0,1,.17,1.1,3,3,0,0,1-1,2.38,4.44,4.44,0,0,1-2.92.87c-.3,0-.58,0-.82,0a6.25,6.25,0,0,1-.68-.09L285.6,60l-.6-.2a3.34,3.34,0,0,1,.13-.66C285.2,59,285.27,58.74,285.35,58.53Z"/></g></g></svg>