<svg xmlns="http://www.w3.org/2000/svg" viewBox="0 0 453.87 116.37"><defs><style>.cls-1{fill:#b32317;}.cls-2{fill:#ffcf00;}.cls-3{fill:#231f20;}</style></defs><title>ict_innovators</title><g id="Layer_2" data-name="Layer 2"><g id="Layer_1-2" data-name="Layer 1"><rect class="cls-1" x="81.89" y="70.67" width="371.98" height="0.82"/><rect class="cls-2" width="21.16" height="16.46" rx="0.67"/><path class="cls-1" d="M58.12,96.65v18.27a1.45,1.45,0,0,1-1.44,1.45H2.1a2.11,2.11,0,0,1-2.1-2.1V34.11A2.1,2.1,0,0,1,2.1,32h17a2.07,2.07,0,0,1,2.07,2.07V75.29A19.91,19.91,0,0,0,41.07,95.21H56.68A1.43,1.43,0,0,1,58.12,96.65Z"/><path class="cls-3" d="M37.66,32H57.42a.7.7,0,0,1,.7.7V78.85a.7.7,0,0,1-.7.7H45.91a9,9,0,0,1-9-9V32.71A.7.7,0,0,1,37.66,32Z"/><rect class="cls-3" x="36.96" width="21.16" height="16.46" rx="0.67"/><path class="cls-1" d="M90.54,26.19c0,4.79-7.26,4.79-7.26,0S90.54,21.39,90.54,26.19ZM83.83,33.1v25H90v-25Z"/><path class="cls-1" d="M120.82,54.9a12.82,12.82,0,0,1-9.59,3.93C104,58.83,98,54.49,98,45.66s6-13.16,13.22-13.16a11.77,11.77,0,0,1,9,3.68l-3.88,4.09a7.51,7.51,0,0,0-5-2,7,7,0,0,0-7.16,7.36c0,4.75,3.23,7.27,7.06,7.27a7.49,7.49,0,0,0,5.45-2.07Z"/><path class="cls-1" d="M136.16,26.19v7.06H143v5.3h-6.91V49.3c0,2.37,1.31,3.53,3.23,3.53a7,7,0,0,0,3-.76L144,57.32a13.64,13.64,0,0,1-5.09,1.06c-5.4.2-8.93-2.88-8.93-9.08V38.55h-4.65v-5.3H130V26.84Z"/><path class="cls-1" d="M172.39,26.19c0,4.79-7.26,4.79-7.26,0S172.39,21.39,172.39,26.19Zm-6.71,6.91v25h6.16v-25Z"/><path class="cls-1" d="M199.64,58.08v-13c0-3.79-2.07-6.66-6-6.66s-6.36,3.18-6.36,7V58.08h-6.11V33.15h5.5l.41,3.38c2.52-2.47,5-3.73,8.17-3.73,5.85,0,10.55,4.39,10.55,12.21V58.08Z"/><path class="cls-1" d="M233.35,58.08v-13c0-3.79-2.07-6.66-6-6.66s-6.36,3.18-6.36,7V58.08h-6.11V33.15h5.5l.41,3.38c2.52-2.47,5-3.73,8.17-3.73,5.85,0,10.55,4.39,10.55,12.21V58.08Z"/><path class="cls-1" d="M273.47,45.66c0,7.17-4.9,13-13,13s-12.92-5.8-12.92-13,4.95-13,12.87-13A12.57,12.57,0,0,1,273.47,45.66Zm-19.73,0c0,3.79,2.27,7.32,6.76,7.32s6.76-3.53,6.76-7.32-2.62-7.36-6.76-7.36C256.06,38.3,253.74,41.93,253.74,45.66Z"/><path class="cls-1" d="M306.92,33.15l-10.59,25h-6.66L279,33.15h6.71l3.43,8.23L293,51.87l3.78-10.39,3.43-8.33Z"/><path class="cls-1" d="M333.57,33.2h5.9V58.08h-5.8l-.3-3.64c-1.42,2.93-5.3,4.34-8.08,4.39-7.36.05-12.81-4.49-12.81-13.22,0-8.57,5.7-13.06,13-13,3.33,0,6.51,1.56,7.93,4ZM318.63,45.61c0,4.75,3.28,7.57,7.37,7.57,9.69,0,9.69-15.08,0-15.08A7.08,7.08,0,0,0,318.63,45.61Z"/><path class="cls-1" d="M356.23,26.19v7.06h6.86v5.3h-6.91V49.3c0,2.37,1.31,3.53,3.22,3.53a7,7,0,0,0,3-.76l1.72,5.25a13.69,13.69,0,0,1-5.1,1.06c-5.4.2-8.93-2.88-8.93-9.08V38.55h-4.64v-5.3h4.64V26.84Z"/><path class="cls-1" d="M396.34,45.66c0,7.17-4.89,13-13,13s-12.91-5.8-12.91-13,4.94-13,12.86-13A12.57,12.57,0,0,1,396.34,45.66Zm-19.73,0c0,3.79,2.27,7.32,6.76,7.32s6.76-3.53,6.76-7.32-2.62-7.36-6.76-7.36C378.93,38.3,376.61,41.93,376.61,45.66Z"/><path class="cls-1" d="M410.22,33.2l.45,2.88c1.92-3.08,4.49-3.53,7-3.53a9.43,9.43,0,0,1,6.41,2.37l-2.78,5.35a6.15,6.15,0,0,0-4.44-1.62c-3.23,0-6.21,1.72-6.21,6.31V58.08h-6.15V33.2Z"/><path class="cls-1" d="M446.6,39.81a8.39,8.39,0,0,0-6.15-2.22c-2.93,0-4.54.91-4.54,2.47s1.46,2.53,4.64,2.73c4.69.3,10.64,1.36,10.64,8,0,4.39-3.58,8.17-10.69,8.17-3.94,0-7.87-.65-11.51-4.44l3-4.39c1.77,2,5.8,3.44,8.58,3.49,2.32,0,4.49-1.16,4.49-3s-1.41-2.42-4.95-2.63c-4.69-.35-10.29-2.06-10.29-7.71s5.95-7.77,10.49-7.77c3.89,0,6.82.75,9.69,3.28Z"/><path class="cls-3" d="M103.65,103.79A12.17,12.17,0,0,1,95,107.35c-8,0-12.18-5.59-12.21-12S86.87,83.08,95,83.08a12.17,12.17,0,0,1,8.64,3.56l-1.25,1.08a10.4,10.4,0,0,0-7.39-3c-6.92,0-10.48,4.88-10.45,10.57s3.6,10.38,10.45,10.38a10.59,10.59,0,0,0,7.42-3Z"/><path class="cls-3" d="M141,95.25c0,6.24-4,12.24-12,12.24s-12-6-12-12.31,4-12.2,12-12.2S141.05,88.84,141,95.25Zm-22.14,0c0,5.35,3.43,10.57,10.18,10.57s10.2-5.22,10.2-10.57c0-5.5-3.39-10.55-10.2-10.55S118.84,89.62,118.87,95.22Z"/><path class="cls-3" d="M178.44,95.25c0,6.24-4,12.24-12,12.24s-12-6-12-12.31,4-12.2,12-12.2S178.48,88.84,178.44,95.25Zm-22.14,0c0,5.35,3.43,10.57,10.17,10.57s10.21-5.22,10.21-10.57c0-5.5-3.39-10.55-10.21-10.55S156.27,89.62,156.3,95.22Z"/><path class="cls-3" d="M194.78,98.88v8.2H193V83.35h10.41c10.31,0,10.31,15.53,0,15.53Zm0-13.84V97.22h8.58c7.9,0,7.9-12.18,0-12.18Z"/><path class="cls-3" d="M227.09,94.3H241V96h-13.9v9.36h15v1.76H225.3V83.35h16.37v1.73H227.09Z"/><path class="cls-3" d="M275.24,107.08h-2.41l-8.21-9h-6.47v9h-1.83V83.35h10.44c5.15,0,7.76,3.69,7.8,7.39,0,3.87-2.51,7.26-7.7,7.26ZM258.15,96.37h8.41c4.13,0,6-2.34,6-5.66a5.48,5.48,0,0,0-5.8-5.67h-8.61Z"/><path class="cls-3" d="M307.34,107.08l-2.61-5.83H290.56L288,107.08h-2l10.64-23.73h2l10.65,23.73ZM304,99.56l-6.37-14.45-6.38,14.45Z"/><path class="cls-3" d="M325.38,85H316.8V83.38h19V85h-8.58v22.07h-1.83Z"/><path class="cls-3" d="M349.45,107.08V83.35h1.8v23.73Z"/><path class="cls-3" d="M386.34,83.35l-9.77,23.8h-2l-9.77-23.8h2l8.78,21.7,8.78-21.7Z"/><path class="cls-3" d="M401.46,94.3h13.9V96h-13.9v9.36h15v1.76H399.66V83.35H416v1.73H401.46Z"/><path class="cls-3" d="M446.75,87.93c-1.72-2.78-4.5-3.19-7.18-3.22s-7.19,1-7.19,4.81c0,3,3.25,3.73,7.25,4.48,4.58.88,9.33,1.69,9.33,6.81,0,5.36-5.43,6.65-9.39,6.65-3.7,0-7.9-1.53-9.73-5.16l1.62-.81c1.46,2.88,5.19,4.3,8.11,4.3s7.56-.81,7.56-5c0-3.56-3.9-4.34-7.8-5.09-4.34-.85-8.78-1.73-8.78-6.1-.1-5,5.12-6.58,9-6.58,3.39,0,6.34.54,8.68,4Z"/></g></g></svg>