<svg xmlns="http://www.w3.org/2000/svg" viewBox="0 0 863.59 222.16"><defs><style>.cls-1{fill:#14540e;}.cls-2{fill:#55b553;}.cls-3{fill:#b7120b;}.cls-4{fill:#aa5355;}</style></defs><title>moba</title><g id="Layer_2" data-name="Layer 2"><g id="Layer_1-2" data-name="Layer 1"><path class="cls-1" d="M260.54,60.81v82.84c0,4.17-.09,8.33,0,12.5.07,2.35-.8,3.26-3.17,3.23q-12.49-.13-25,0c-2.29,0-3.46-.63-3.31-3.07.08-1.33,0-2.66,0-4,0-46.82.07-93.64-.09-140.46,0-4.66.95-6.48,6-6.2,8,.45,16,.23,24,.14,4.28,0,7.37,1.62,9.3,5.45l47.22,93.24c.28,0,.69-.41,1-1.07,14.38-30.95,30.81-60.87,45.86-91.48,2.08-4.24,5.14-6.2,9.86-6.12,8.16.13,16.34.27,24.49-.1,4.32-.2,5.18,1.3,5.16,5.33-.14,43.15-.09,86.31-.09,129.46,0,5-.19,10,.06,15,.16,3.18-1.13,4-4,4-7.66-.14-15.33-.24-23,0-3.53.1-4.52-1.07-4.5-4.55.15-30.32.12-60.65.15-91a5.69,5.69,0,0,0-.77-3.27c-2.37,4.43-4.81,8.82-7.11,13.28q-15.72,30.38-31.35,60.8c-3.15,6.16-7.9,8.87-14.81,9-7.49.11-13.07-1.92-16.7-9.13C288.32,112,276.6,89.54,265,67.06c-1.13-2.19-2.36-4.33-3.54-6.49Z"/><path class="cls-1" d="M58.5,122.7c-2,3.33-4.93,4.53-8.73,4.77-6.66.43-13.29.54-20,.48-4.3,0-7.3-1.63-9.48-5.24A22,22,0,0,0,12.7,115c-5.11-3-7.32-7.67-8-13.13-.93-7.59-1.53-15.18-4-22.51A10.74,10.74,0,0,1,3.38,67.78a9.85,9.85,0,0,0,3-5.07c1.27-7.24,6.27-12.36,10.08-18.15,1.34-2,3.1-2.61,5.06-1.1,2.68,2.07,5,1.79,7.7-.12,1.72-1.23,3.88-1.85,5.87-2.71,3.49-1.51,5.46-3.77,4-7.82-1.2-3.25.69-5.07,3.21-6.39,5.27-2.76,10-6,12-12,.75-2.23,2.83-2.6,5-2.18,11,2.15,22.24,1.31,33.22,3.71a23.62,23.62,0,0,0,14.22-1.47,7.24,7.24,0,0,1,3.85-.78c6.33,1.26,9-2.3,11.09-7.48,3.14-7.85,5.33-8.08,10.9-1.69,6.64,7.64,9.25,16.82,9.88,26.64.83,13,3.16,16.19,15.6,20.42,10.27,3.51,12,6,11.89,16.69-.08,5,.84,9.33,6.27,11.21a3.56,3.56,0,0,1,2.59,3.31c.42,5.08,2.7,9.55,4.65,14.15,3.73,8.85,2.49,17.29-2.58,25.21-3.33,5.19-5.46,5.47-11.34,4-11.24-2.84-22.59-5.23-33.89-7.81-4.53-1.06-7.68-4.17-10.87-7.24-.83-4-4-5.54-7.28-6.73-6.19-2.22-12.64-2.6-19.14-2.24-4.32.24-7.86-.76-9.92-5A3.91,3.91,0,0,0,84,94.83c-8.85,1.59-18.5,9.37-17.86,17.34C62.19,114.69,59.94,118.41,58.5,122.7Z"/><path class="cls-1" d="M683.82,79.31c1.13,1.68,2.72,1.79,4.09,2.3,20.76,7.7,28.92,25.91,21,46.64-6.89,18-21.3,26-39,29.81-6.07,1.3-12.25,1.27-18.41,1.28-18.17,0-36.33,0-54.5.12-3.18,0-4.66-.45-4.65-4.23q.2-72.51.06-145c0-2.85.24-4.65,3.94-4.6,21.16.28,42.35-.13,63.49.61,13.78.48,27.16,3.53,37.66,13.63,17.24,16.58,12.89,46-8.33,56.8C687.4,77.56,685.63,78.41,683.82,79.31Zm-55.5,34.27c0,5.15,0,10.31,0,15.46,0,1.8.11,3.31,2.56,3.27,9.8-.18,19.68.39,29.4-.58,10.51-1,16.05-8.82,15.84-20.07-.19-10.29-5.17-15.46-16.46-16.87-9.44-1.18-18.94-.31-28.4-.58-2.61-.07-3,1.28-3,3.4C628.36,102.93,628.31,108.25,628.32,113.58Zm0-62.7h0c0,5.32,0,10.64,0,16,0,1.65-.28,3.49,2.35,3.41,9.12-.28,18.31.84,27.36-1,9.58-1.91,14.39-8.2,14.15-18.13-.26-11-4.59-16.35-14.74-18-8.75-1.44-17.59-.45-26.39-.76-2.26-.08-2.81,1-2.78,3C628.37,40.58,628.32,45.73,628.32,50.88Z"/><path class="cls-1" d="M497.48,4.11C531.74,4.18,559,21,570.93,51.87,590.26,101.82,561.25,159,500.49,161c-23.91.78-45.62-5.46-62-23.37C415,112,410.66,81.92,423.57,50.31,436.18,19.43,461.47,5.74,494,4.12,495.15,4.06,496.32,4.11,497.48,4.11ZM540.2,81.93c-.2-2.69-.34-6-.71-9.33C536,40.93,505.25,23.94,476.7,37.88c-5.8,2.83-10.85,6.67-14.2,12.21-11.6,19.14-11.75,39.09-3.23,59.28,4.4,10.42,12.67,16.85,23.44,20.16,19.82,6.09,40.5-.88,50.35-17.19C538.58,103.21,539.84,93,540.2,81.93Z"/><path class="cls-1" d="M785.65,124.92c-8.49,0-17,.08-25.49,0-2.57,0-3.9.77-4.69,3.28-2.19,7-4.67,13.88-7,20.84-2.41,7.38-6.24,10.33-13.89,10.39s-15-.07-22.5.11c-3.34.08-4-.72-2.73-4q14.88-37.87,29.51-75.85c8.65-22.35,17.43-44.65,25.71-67.14,2-5.48,4.73-7.33,10.44-7,8.13.52,16.32.26,24.48.08,3.26-.07,4.93.9,6.18,4.15q28,72.72,56.23,145.31c1.19,3,1.25,4.46-2.73,4.33-7.82-.24-15.66,0-23.49-.12-6.71-.13-10-2.63-12.2-9.05-2.48-7.07-5-14.12-7.25-21.27-.94-3-2.37-4.25-5.63-4.17C802.32,125.06,794,124.92,785.65,124.92ZM786,39.66c-.5.45-.87.62-1,.89-6.24,18.61-12.34,37.25-18.76,55.79-1.33,3.86.07,4.12,3.19,4.1,10.82-.09,21.65-.21,32.46.08,4.48.12,4.44-1.41,3.23-4.88C798.67,77.11,792.4,58.53,786,39.66Z"/><path class="cls-1" d="M545.46,180.32H234c-2.89,0-5.75.4-5.29-4.18.24-2.45,1.09-3.14,3.34-3.06,3.16.11,6.33,0,9.5,0H857.45c3,0,6.74-1.08,6,4.35-.23,1.81-.69,2.81-2.6,2.78-1.34,0-2.67,0-4,0H545.46Z"/><path class="cls-2" d="M124.8,111.08c3.19,3.07,6.34,6.18,10.87,7.24a117.7,117.7,0,0,1-17.11,10.1c-8.14,4-11.46,10.27-11.25,19.29.35,14.65.07,29.33.07,44,0,8.83,0,17.67.09,26.5,0,4-1,4.41-4.63,2.59-5.35-2.7-7.25-6-7.08-12.41.58-21.47,0-43,0-64.46,0-9.8,3.94-17.87,12.16-23.34C113.3,117,118.62,113.25,124.8,111.08Z"/><path class="cls-3" d="M58.5,122.7c1.44-4.29,3.69-8,7.59-10.53,4.44,2.62,8.92,5.17,13.31,7.87,8.35,5.15,13.41,12.31,13.42,22.47q0,35.25,0,70.49c0,3-7.73,9.41-10.87,9.15C80.49,222,80.63,221,80.61,220c0-2.34-.06-4.67-.06-7,0-21.84-.13-43.67.08-65.5.08-8.1-2.59-14.21-9.93-18.06C66.58,127.31,62.56,125,58.5,122.7Z"/><path class="cls-4" d="M862.7,191.79c.8,3.08-.84,4.13-1.67,5.44-2.95,4.63-6.4,9-5.25,15.08.17.89.11,2.25-1.22,2.3s-1.47-1.33-1.31-2.22c1.06-6.21-2.35-10.84-5.41-15.58-.74-1.14-1.27-2.46-3.23-2.68-5.51-.6-6.19-.06-6.3,5.57-.09,5.06.47,10.17-.46,15.26-2.05-.23-1.83-1.64-1.86-2.67-.1-3.33,0-6.66,0-10-.14-10.27,1.38-7.36-8.64-8.28-2-.18-4,.19-6,.17-2.71,0-5.17-.49-5.16,3.8,0,4.14,1.63,5.19,5.33,4.84,1.37-.12,3-.56,4.3.72-1.48,2.12-3.66,1.27-5.45,1.22-3.08-.08-4.88.26-4.9,4.2s2.21,4.09,5,4.19c2.2.08,4.51-.45,7.8,1.11-4.79,1.36-8.52.73-12.16,1-1.76.12-2.23-1.11-2.23-2.62q0-8.73,0-17.48c0-2,.88-3,3-3,9.3.07,18.6,0,27.91,0,4.6,0,5.36,4.19,6.93,6.91,1.92,3.33,3.39,2.16,5.1.46C859,197.48,859.71,194.15,862.7,191.79Z"/><path class="cls-4" d="M658.09,213.41c2.5-6.26,4.69-11.81,6.93-17.34.54-1.35.92-3.25,2.51-3.4,1.83-.18,2.08,1.86,2.63,3.16,2.34,5.5,4.6,11,6.9,16.57.36.88,1.12,1.86-.27,2.48s-1.49-.63-2-1.48c-4-7-9.9-7.12-14.33-.22-1.61,2.5-3.35,2.49-5.21.47-1.57-1.71-2.87-3.67-4.49-5.34-1.17-1.22-2.06-3.51-4.32-2.55-2,.82-1.07,2.9-1.29,4.46s.53,3.34-.89,4.71c-1.54,0-1.47-1.1-1.48-2,0-5.82.07-11.65,0-17.47,0-2.37.8-3.37,3.18-3.21s4.69-.13,6.91.75c3.94,1.55,5.66,6.8,2.39,9.25-4.37,3.29-2.53,5.42.09,8.08C656.11,211.11,656.83,212,658.09,213.41ZM645,198.33c-.15,2.64-.46,5.25,3.55,4.89,3-.28,5.89-.72,5.88-4.56s-2.92-4.21-5.92-4.51C645,193.8,644.55,195.68,645,198.33Zm22.7-2.26c-1.26,2.89-2.19,5.31-3.35,7.62s-.07,2.75,2,2.78c1.63,0,3.53.8,4.71-.55,1.36-1.54-.36-3.08-.84-4.55A45.86,45.86,0,0,0,667.67,196.07Z"/><path class="cls-3" d="M56.48,143.39a9.13,9.13,0,0,1,9-9.36,9.08,9.08,0,0,1,.49,18.14A9,9,0,0,1,56.48,143.39Z"/><path class="cls-2" d="M131.82,143.48c-.25,5.37-4.12,8.93-9.44,8.68a9.26,9.26,0,0,1-8.63-9.22,9.55,9.55,0,0,1,9.42-8.95A8.69,8.69,0,0,1,131.82,143.48Z"/><path class="cls-4" d="M394.51,208.5V192.73l1.3,0v22.72c-4.44-3.84-7.12-8.79-10.66-13-.82-1-1.2-2.82-2.72-2.53-2,.38-1.18,2.41-1.42,3.76-.64,3.6.85,7.45-.68,10.95l-1.52,0c0-6.87,0-13.73,0-20.6a1.22,1.22,0,0,1,1.19-1.33c.94,0,1.42.72,1.92,1.39q4,5.38,8.09,10.76C391,206.11,391.75,207.67,394.51,208.5Z"/><path class="cls-4" d="M580.9,203.8c-.24,7-4.85,11.57-11.7,11.48-5.64-.07-9.94-5.45-9.87-12.06.08-7.91,5.37-11.5,11.5-11.24S581.13,197.11,580.9,203.8Zm-2.34-.23c0-6-3.07-9.51-8.41-9.54-5.15,0-8.63,3.83-8.56,9.5s3.52,9.62,8.55,9.63S578.53,209.48,578.56,203.57Z"/><path class="cls-4" d="M401.42,204.12c0-1.16-.33-2.45.06-3.47,1-2.73-2.89-7.15,2.1-8.29,7.42-1.69,14,1,15.94,6,3.48,9.06-1.82,18.1-11.34,16.79a8.26,8.26,0,0,0-3-.06c-3.14.76-4.24-.25-3.84-3.51a59.84,59.84,0,0,0,.06-7.46Zm2.18-.79h0c0,2.33,0,4.65,0,7,0,1.12-.1,2.22,1.42,2.78,4.13,1.52,10.33-.66,12.17-4.43,2.4-4.91.65-11.19-3.76-13.47-6.15-3.18-9.87-1.05-9.86,5.65Z"/><path class="cls-4" d="M294.39,197.2c0,4.24.08,7,0,9.8-.1,2.61.47,5.29-1,7.86-1.49-7.27-.82-14.61-1-23.1,6.32,5.13,8.89,11.92,15.17,17.58V192.7l2,0c0,7,0,13.95,0,20.92,0,.35-.7,1.05-.85,1a5.61,5.61,0,0,1-3-2.22c-2.64-4-5.5-7.9-8.3-11.82C296.78,199.82,296.07,199.13,294.39,197.2Z"/><path class="cls-4" d="M782.59,203.28c.08,6.95-4.42,12.09-10.5,12-6.58-.11-11.13-4.75-11.22-11.45s4.51-11.73,10.77-11.83C778.39,191.87,782.51,196.12,782.59,203.28Zm-19.27.49c.06,5.79,3.39,9.39,8.69,9.38,4.87,0,8.49-4.21,8.41-9.78s-3.72-9.44-8.78-9.34S763.25,197.89,763.32,203.77Z"/><path class="cls-4" d="M264.71,214.6c-9.13-8.32-9.13-8.32-19.86-.17,2.85-7.07,5.51-14.22,8.66-21.14,1-2.07,2.6-.54,3.19.92C259.44,201,262.05,207.8,264.71,214.6Zm-9.57-18.25c-2.11,1.43-2.09,3.82-3.11,5.62-2,3.47-1,4.51,2.86,4.4,3.26-.08,4.33-.87,2.8-4C256.76,200.44,256,198.43,255.14,196.35Z"/><path class="cls-4" d="M583,203.49c0-6.64,4.77-11.54,11.12-11.52s10.7,4.57,10.73,11.15c0,7.4-4.21,12-11,12C587.58,215.09,583,210.18,583,203.49Zm19.49-.19c0-5.87-3.38-9.39-8.76-9.28s-8.37,3.8-8.26,9.77c.11,5.78,3.58,9.48,8.78,9.36S602.54,209.28,602.5,203.3Z"/><path class="cls-4" d="M357.16,214.82c.62-7.9,5.13-14.24,7.71-21.29a1.73,1.73,0,0,1,3.36,0c2.18,7.12,5.23,13.93,7.32,21.32-3.17-2.07-3.46-6.67-9-6.72S360.21,212.29,357.16,214.82Zm4.95-8.77c3,.15,6.89,1.46,7.38-.45.77-3-1.16-6.42-3.34-9.36A42.79,42.79,0,0,0,362.11,206.05Z"/><path class="cls-4" d="M803.15,211.14c-4,5.17-10.4,5.43-15,1-4.2-4-4.35-13.63-.27-17.36s11.32-3.73,15.87,1.23c-6.18-1.17-12.54-4.74-15.41,3-1.59,4.28-1,8.66,2.41,12C794.68,215,798.93,212.58,803.15,211.14Z"/><path class="cls-4" d="M466,214.82c-2.9-2.15-4.86-5.17-6.77-8.14a3,3,0,0,0-3.28-1.47c-2.15.13-1.44,1.83-1.59,3-.28,2.22.37,4.56-.51,6.7-1.82,0-1.77-1.31-1.79-2.16-.09-5.81,0-11.63-.11-17.45,0-2.42,1-3.34,3.28-3.09,2.14.23,4.4,0,6.41.66,4.61,1.46,6,8,1.82,10.23-3.85,2.07-2.12,3.41-.62,5.39l4.14,5.44Zm-9-20.71c-2.65-.49-2.81,1.62-2.58,4s-1,5.31,3.2,5.14c3.09-.12,5.78-.91,5.86-4.5C463.47,195,460.54,194.4,456.91,194.11Z"/><path class="cls-4" d="M700.71,192.56c4.1,5.17,5.85,11.47,8.79,17.95,3.89-6,4.87-12.8,8.75-18.31,1.9,1.76.44,3.1,0,4.26-2.07,5.56-4.33,11.06-6.51,16.58-.38,1-.86,2-1.92,2.07-1.28.12-1.39-1.21-1.77-2.06C705.11,206.41,701.77,199.91,700.71,192.56Z"/><path class="cls-4" d="M737,193.18c-4.07,1.76-6.9,1-9.6.95-2.92-.06-3.36,1.45-3.15,3.69s-.9,5,3,5c2,0,4.19-.71,6.34.81a4.49,4.49,0,0,1-4.71,1.35c-3.53-.68-4.6.58-4.78,4.1-.21,4,1.89,4.17,4.87,4.12,2,0,4.19-.62,6,2-3.82,0-7.63.07-11.44,0-1.54,0-1.69-1.34-1.69-2.56,0-6,0-12-.07-17.92,0-1.22-.06-2.49,1.63-2.42C727.44,192.46,731.57,191.66,737,193.18Z"/><path class="cls-4" d="M758.16,195c-2.24,1.22-3.31-.91-5-.92-2.25,0-4,.61-4.71,2.8s.47,3.51,2.3,4.37c1.35.63,2.76,1.13,4.15,1.67,2.75,1.07,4.61,2.91,4.1,6-.43,2.68-1.71,5.46-4.43,6.13-3,.74-6.31.47-8.83-2a1.22,1.22,0,0,1-.24-1.75c.69-.75,1.34-.47,2.09.17,2.4,2.08,4.95,2.6,7.44.15s2.34-4.71-.72-6.45a47.58,47.58,0,0,0-4.63-1.77c-2.44-1.08-4.43-3-4.11-5.63a6.13,6.13,0,0,1,5-5.55C753.5,191.7,756.43,191.68,758.16,195Z"/><path class="cls-4" d="M282.43,192.85c-2,5.09-3.95,10.24-6.16,15.25-1,2.34-1.34,6.42-3.73,6.46-3,.05-3-4.19-4.09-6.57a80.82,80.82,0,0,1-5.92-15.88c4.07,2,3.86,5.76,5.44,8.35s1,7.82,4.63,7.76c2.87-.05,2.79-5,4.24-7.73s1.5-6.07,4-8.18Z"/><path class="cls-4" d="M229.6,210.67c2.86,1.12,4.47,2.06,6.19,2.36,2.5.44,4.58-.33,5.43-3.14.79-2.63-.36-4.1-2.64-5.06-.92-.39-1.8-.86-2.74-1.19-2.85-1-5.15-2.35-5.1-5.88,0-2.75,1.66-4.33,3.95-5.19,3.1-1.16,6-.88,8.43,1.94-1.79,1.5-3,.55-4.36,0-2.13-1-4.18-.45-5,1.74a4.08,4.08,0,0,0,2.09,5.08,25.79,25.79,0,0,0,2.79,1c2.76,1.16,5.77,2.1,5.28,6.12-.37,3.06-1.59,5.55-4.76,6.29C235.68,215.54,232.29,215.44,229.6,210.67Z"/><path class="cls-4" d="M487.31,203.63a14.77,14.77,0,0,1,0-2.49c.54-2.9-1.69-6.6,1.46-8.63,2.95-1.91,12.6.64,14.81,3.44a11.7,11.7,0,0,1,1.76,12.63c-1.91,4.28-5.26,6.74-10.19,6.55a20.34,20.34,0,0,0-3.49,0c-3.59.5-4.71-1.14-4.38-4.53.22-2.3,0-4.64,0-7Zm2.16-.1c0,2.32,0,4.63,0,6.95,0,1.19.12,2.17,1.61,2.64a9.74,9.74,0,0,0,12.83-7.53,9.35,9.35,0,0,0-3.1-9.39,9.68,9.68,0,0,0-9.85-1.66c-3.25,1.31-.84,5.28-1.48,8A4.67,4.67,0,0,0,489.47,203.53Z"/><path class="cls-4" d="M637.8,192.23c-3.37,3.74-8.95-1.5-10.13,4.57-1.64,8.36,5.83,5,9.52,6.55-1.44,2.1-3.13,1.62-4.43,1.45-4-.51-5.16,1.3-5.19,5.06,0,4.36,3.13,3,5.25,3.23s4.15-.67,7.12,2H627.51c-1.83,0-2.08-1.22-2.08-2.69,0-5.82,0-11.64-.06-17.46,0-1.93.84-2.72,2.67-2.72C631,192.24,634,192.23,637.8,192.23Z"/><path class="cls-4" d="M558.47,210.82c-4.84,5.31-11.25,5.69-15.68,1.49-4.26-4-4.51-12.44-.48-16.76,4.4-4.73,10.4-4.91,16.11.43-4.49-.78-8-3.29-11.53-1.29s-5.62,5.32-5.18,9.47c.4,3.72,1.89,7,5.82,8.57C551.29,214.22,554.45,211.72,558.47,210.82Z"/><path class="cls-4" d="M334.9,210.53c3.25,1.23,5.05,2.87,7.62,2.34,2.15-.44,3.74-1.36,4.28-3.53.59-2.42-1-3.67-2.85-4.61a11.78,11.78,0,0,0-2.35-.78c-2.92-.8-5.26-2.25-5.47-5.6a5.36,5.36,0,0,1,3.7-5.86c3.12-1.05,6.12-.87,8.63,2.26-2.19,1.43-3.43-.92-5.14-.75-2.12.2-4.08.37-4.79,2.69s.46,3.75,2.72,4.46c1.09.34,2.11.92,3.18,1.35,3,1.2,5.13,3,4.63,6.68a6.23,6.23,0,0,1-5.39,5.72C340.32,215.52,337.17,215.15,334.9,210.53Z"/><path class="cls-4" d="M608.51,216.39c0-8.58,0-15.71,0-22.85,0-.28.25-.75.47-.81a14.87,14.87,0,0,1,9.7.47c2.86,1.12,3.93,3.43,3.56,6.39s-2,6.06-5,5.95c-6.56-.23-7.52,3.24-7,8.44C610.31,214.3,609.79,214.68,608.51,216.39Zm2-17.19c.62,1.5-1.73,5.12,3.21,4.94,3.57-.13,5.92-1.48,6-5,.14-3.95-2.86-4.6-6.09-4.91C609.8,193.81,610.39,196.34,610.49,199.2Z"/><path class="cls-4" d="M483.53,193.73c-2.63,1-5.43.46-8.13.43-2.45,0-3.36,1-3,3.28.31,2-1.16,5,2.67,5.32,2.08.18,4.29-.42,6.37.7-1.13,2.23-3,1.31-4.48,1.29-3.35,0-4.63,1.25-4.73,4.71-.12,3.91,2.16,3.75,4.77,3.73,2,0,4.16-.45,6,1.84-3.62,0-7.25.06-10.87,0-1.87,0-1.84-1.55-1.85-2.91,0-5.64,0-11.29,0-16.93,0-1.72.4-2.94,2.42-2.94h10.78C483.47,192.73,483.5,193.23,483.53,193.73Z"/><path class="cls-4" d="M448.2,211.12a9.61,9.61,0,0,1-14.15,1.61c-4.77-4.19-5-13.72-.48-18,4-3.79,10.82-3.56,15.15,1.39-6.41-2.4-12.15-4-15.26,3.13-1.81,4.1-1.44,8.2,1.87,11.52C439.37,214.79,443.73,213.23,448.2,211.12Z"/><path class="cls-4" d="M692.77,192.85c-.11.53-.08.73-.17.8-2,1.67-5.83-1.2-6.85,2.2-.74,2.43-.29,5.24-.27,7.87,0,3.84.28,7.7-1.33,11.36-2-3.87-1.11-8-1.2-11.93-.19-7.87-.06-7.87-7-10.3Z"/><path class="cls-4" d="M332.62,195.65c-10.2-2.28-13.78-1.55-16,2.93-2.33,4.76-.26,10.55,5.81,15.48-5.62.38-7.49-3.12-8.74-7.21a11.24,11.24,0,0,1,4.92-13.39C322.9,190.85,328.5,191.52,332.62,195.65Z"/><path class="cls-4" d="M531.91,193.07c-7.33,1.85-7.3,1.85-7.33,9.89,0,3.81-.16,7.62-.3,11.43,0,.18-.49.35-1.16.79-1.44-4.24-.58-8.47-.67-12.58-.16-7.67,0-7.67-7.22-9.47A45.62,45.62,0,0,1,531.91,193.07Z"/><path class="cls-4" d="M695.59,214.62v-22l1.32,0c1.05,7.27.28,14.58.51,21.87Z"/><path class="cls-4" d="M286.08,214.67c-1.1-7.36-1.69-14.69-.09-22C287.76,200,287,207.37,286.08,214.67Z"/><path class="cls-4" d="M326,205.07c2.85-1.15,5.32-1.89,6.52-.15,1.48,2.13,1.19,5.18,0,7.54-1.07,2.07-3.65,1.94-5.67,2.51-.2.06-.77-.58-.89-1-.27-1,.54-1,1.17-1.06,2.57-.15,3.7-1.4,3.92-4.05C331.27,205.66,328.26,206.43,326,205.07Z"/><path class="cls-4" d="M808.25,192.63v21.91a61.78,61.78,0,0,1-1.24-21.9Z"/><path class="cls-4" d="M511.22,193.28v21.34H510C510,207.48,509.23,200.35,511.22,193.28Z"/></g></g></svg>