<svg xmlns="http://www.w3.org/2000/svg" viewBox="0 0 541.36 236.65"><defs><style>.cls-1{fill:#231f20;}.cls-2{fill:#fbab2b;}.cls-3{fill:#f15b2b;}.cls-4{fill:#fcb12e;}.cls-5{fill:#faa325;}.cls-6{fill:#fcb431;}.cls-7{fill:#8d6759;}.cls-8{fill:#f15a29;}</style></defs><title>rc</title><g id="Layer_2" data-name="Layer 2"><g id="Layer_1-2" data-name="Layer 1"><path class="cls-1" d="M219.48,88.21a2.18,2.18,0,0,1,.4-.69,4.06,4.06,0,0,1,1.1-.65,4.55,4.55,0,0,1,1-.57.66.66,0,0,1,.57.27l.08.36.17.65a1.82,1.82,0,0,0-.07.36.69.69,0,0,0,.24.44,6.32,6.32,0,0,0,1.13-.52l.88-.3.89-.59.56-.23a4,4,0,0,1,.51-.23l.46.08h.06a12.52,12.52,0,0,0,1.43-.44,2.83,2.83,0,0,1,.63,0,.92.92,0,0,1,.51.11l.44.42.3.06a5.36,5.36,0,0,0,.6-.3l.11,0a1,1,0,0,1,.63.32,1.69,1.69,0,0,1,.48.9,11.5,11.5,0,0,1-1.26,1c-.31.39-.53.59-.67.59s-.52-.22-.88-.67a5.55,5.55,0,0,1-.63,0,3.06,3.06,0,0,1-.91-.25,4.58,4.58,0,0,0-1-.26.81.81,0,0,1-.69.47,5.43,5.43,0,0,0-.74.08l-.84.25a1,1,0,0,1-.33-.14c-.29.25-.78.63-1.48,1.13a1.94,1.94,0,0,0-.65,1.7v.74c0,.25,0,.46,0,.63s-.16.39-.48.69a1.07,1.07,0,0,1,.36.66,1.82,1.82,0,0,1,0,.35l.32.09.06.63.11,3.76-.09.23-.54.3a3.68,3.68,0,0,0-1.18.31,4.09,4.09,0,0,0,1.32.28l.36-.09a4,4,0,0,1,.21,1,.83.83,0,0,1-.48.75,4.06,4.06,0,0,1-1.07.21,5.13,5.13,0,0,0-.91.53.47.47,0,0,1-.29.08c-.34,0-.51-.14-.51-.44A11.31,11.31,0,0,1,220,101a.69.69,0,0,0,0-.25s0-.34-.1-.94a1.46,1.46,0,0,1,.08-.36l.5-.15a2.12,2.12,0,0,0,0-.33,1.13,1.13,0,0,0-.32-.66v-.52a8.11,8.11,0,0,0-.13-1,11,11,0,0,0,.07-1.18c.52-.18.78-.4.78-.67a1.46,1.46,0,0,0-.07-.34,1.52,1.52,0,0,1-.42.07.64.64,0,0,1-.36-.17V92.4a2.55,2.55,0,0,0,0-.38v-.34a2.18,2.18,0,0,1,.28-.9.91.91,0,0,1-.32-.4s0-.5-.08-1.37A2,2,0,0,0,219.48,88.21Z"/><path class="cls-1" d="M246.2,87l.68-.43a3.6,3.6,0,0,0,.44.49,2.17,2.17,0,0,0,.44.21,19.61,19.61,0,0,1,1.81,1.76,3.25,3.25,0,0,1,.69,1c.11.27.23.59.36,1,.08.2.18.45.29.76l-.14.14a3,3,0,0,1-.63-.19l-.8.3-.72-.13-.63.17a12.35,12.35,0,0,0-1.37-.92,4.12,4.12,0,0,0-1,.86c-.9-.17-1.38-.25-1.43-.25a6.3,6.3,0,0,0-.8.06l-.11-.09c-.22,0-.83.05-1.83.05l-.77.08-1,.08-1,.17-.88,0a13.27,13.27,0,0,1-1.66.44,5.24,5.24,0,0,1-.21,1,2.33,2.33,0,0,1-.51.69q.68.47.72.66a9.08,9.08,0,0,0,.4,1.8l.37.21-.1.78.65.17a2.23,2.23,0,0,0,.55,1.16,2.08,2.08,0,0,0,1.05.38c.07.43.18.69.34.77a1.56,1.56,0,0,0,.75.17l.36.55a2.07,2.07,0,0,1,.4,0,8,8,0,0,1,1.26.52,1.14,1.14,0,0,0,.55.13,5,5,0,0,0,1.07-.25l1.34-.15,1-.3a4.41,4.41,0,0,0,1-.12,11.73,11.73,0,0,0,1.31-.74,5,5,0,0,0,1.07-.78,6.67,6.67,0,0,0,.71-1,.69.69,0,0,1,.59-.25,1,1,0,0,1,.55.28,4.39,4.39,0,0,1-.27,1c-.59,1-1,1.66-1.12,2a1.2,1.2,0,0,0-.46-.13,2.15,2.15,0,0,0-.7.42,1.9,1.9,0,0,1-.94.3,14.57,14.57,0,0,1-1.81.42,7.84,7.84,0,0,0-1.09.15l-.67.21-1.24-.19-.74.12-.36,0a5.39,5.39,0,0,1-.78.07q-.27,0-1.53-.15l-.4,0-.44-.28c-1-.32-1.63-.51-1.75-.56a9,9,0,0,1-.71-.63s-.27-.18-.74-.47-.6-.42-.63-.54l-.38-.67a4.4,4.4,0,0,0-.71-.8,1.17,1.17,0,0,0,.21-.51,12.58,12.58,0,0,0-.55-1.18,5.86,5.86,0,0,1-.14-1.78,6.31,6.31,0,0,1,.29-1.52,4.19,4.19,0,0,1,.36-.94l.71-.84.46-1L237,89.1l1.54-.95L240,87.08l.57-.11,1.6-.5,1-.09a11.83,11.83,0,0,1,1.37-.46A1.57,1.57,0,0,1,246.2,87Zm-2.43,3.15.35.44.57-.11a5.3,5.3,0,0,0,1.14-.29l1.19.11s0-.07.11-.21,0-.16,0-.21a.77.77,0,0,0-.25-.47l-.21-.25q-.51-.67-.63-.63l-.7-.34a1.72,1.72,0,0,1-.4-.48,16.82,16.82,0,0,0-2.08-.08l-.42,0-.71.42s-.42.12-1.16.29c-.59.21-1.11.41-1.55.61-.1.07-.38.31-.82.71l-.49.38v.13l0,0,1.54.61.46.46.82-1a.4.4,0,0,1,.23-.08s.39.09,1,.27h0a7,7,0,0,0,1.2-.21A4.4,4.4,0,0,1,243.77,90.19Z"/><path class="cls-1" d="M256.53,87.12l.86-.55c0-.24,0-.54.08-.92l0-2.1a3.06,3.06,0,0,1,.42-1.37,1.68,1.68,0,0,1-.54-.53s-.05-.76-.07-2.16l0-1.52,0-1a1.67,1.67,0,0,1,.32-.88,4.42,4.42,0,0,0,.56-1,1.57,1.57,0,0,0,0-.29l-.31-.15a6.11,6.11,0,0,1,1.38-3,5,5,0,0,1,.93-1.09l1.34-1.12c.24-.16.9-.54,2-1.11l.44-.32.63-.08,1.16-.27a5.52,5.52,0,0,1,.67.19.84.84,0,0,0,.27,0,1.42,1.42,0,0,0,.34,0,3.61,3.61,0,0,1,.51-.07,1.89,1.89,0,0,1,1.43.68h.52a.68.68,0,0,1-.15.48,5.85,5.85,0,0,1-.46.55,3,3,0,0,1-.42.54,4.66,4.66,0,0,1-1.13.57c-.31-.17-.78-.43-1.41-.8a2.84,2.84,0,0,0-1.43-.46,4.89,4.89,0,0,0-1.89.65,1.89,1.89,0,0,0-.78.69,11.57,11.57,0,0,0-1.14,2.65l-.23.47L260,74.84a2.59,2.59,0,0,0-.38.8c0,.16.14.27.42.36a2.32,2.32,0,0,0-.15.84c0,.13,0,.45,0,1l0,1.55a4.78,4.78,0,0,1-.4,1,1.12,1.12,0,0,0,0,.4,2.39,2.39,0,0,0,.36,1,20.52,20.52,0,0,1,.1,3.13c0,.24-.21.55-.63.94V86a1.13,1.13,0,0,0,.49.28c.25.08.4.46.46,1.13A2.58,2.58,0,0,0,261,88l.93.25,1.22.34,1.47-.57,1.56-.33a3.7,3.7,0,0,1,1.11-.61,6.18,6.18,0,0,1,.8-.11,1.42,1.42,0,0,1,.44.82c-.8.48-1.29.78-1.47.92a3.46,3.46,0,0,0-.63.64.4.4,0,0,1-.27.14,2.43,2.43,0,0,1-.72-.16,2.36,2.36,0,0,0-.8-.13,7.88,7.88,0,0,0-1.15.15,4.83,4.83,0,0,1-.7.06,6.18,6.18,0,0,1-1.22-.15,9.93,9.93,0,0,0-1-.19.65.65,0,0,0-.44.24.56.56,0,0,0-.19.44l.19.92.13,2.06a.74.74,0,0,1-.11.3c-.29.09-.44.25-.44.46a.94.94,0,0,0,.46.73c0,.38.05.63.07.74a21.75,21.75,0,0,0,.31,2.73l-.21.21L260,97.8l-.36.33a4.77,4.77,0,0,0,.36.45c.25.29.37.49.35.59v0l-.06.67v.06a7.64,7.64,0,0,0,.15,1l-.32.17v.48a13.54,13.54,0,0,0-1.6.7,3.06,3.06,0,0,1-.82.19v-.13a.93.93,0,0,1-.42.17.92.92,0,0,1-.44-.21,3.84,3.84,0,0,0,.17-.78l.08-.48.11-.61a5.19,5.19,0,0,0,.31-1.37c0-.14,0-.54,0-1.2a.91.91,0,0,0,.47-.67,4.19,4.19,0,0,0-.17-1,5.53,5.53,0,0,1-.21-1.11l0-.67V90.82q0-.72.21-.78a3.49,3.49,0,0,0,.78-.33v-.3l-.19-.19a1.42,1.42,0,0,1-.38.06c-.16,0-.25,0-.3-.08l-.71-1-1-.16a4.23,4.23,0,0,0-.51-.13c-.35,0-.88.38-1.59,1.16a.53.53,0,0,1-.11-.3,5.11,5.11,0,0,1,.76-1.2c.32-.42.63-.63.92-.63A8.3,8.3,0,0,1,256.53,87.12Z"/><path class="cls-1" d="M271.22,68.62a1.73,1.73,0,0,0,.53-.23,4,4,0,0,1,.77-.44,3.07,3.07,0,0,0,1.06-.82h.18c.33,0,.49.19.49.56v0c0,.08,0,.17,0,.27a.43.43,0,0,0,0,.13l.21.73-.09,1.77c0,1.13,0,1.73,0,1.78a1.49,1.49,0,0,1-.36.57l-.12.68.44.06a3.89,3.89,0,0,1,.12.75,1.24,1.24,0,0,1-.44.85c0,.39,0,.64,0,.75a.61.61,0,0,0,.27.46c0,.27,0,.47,0,.59l-.1,2.63v2.67a2.23,2.23,0,0,1-.38.82,1,1,0,0,0-.12.42s.09.38.29,1v.11a1.07,1.07,0,0,1-.44.71l.46,1,.23.17V88l.06,4.73-.37.23a6.28,6.28,0,0,1,.06.76c0,.06,0,.39-.13,1v.57l.65.08-.06.15.38,3.43,0,.88.12.63a4.29,4.29,0,0,0-.42.74.56.56,0,0,0,.11.27,8.53,8.53,0,0,0-1.18.63c-.29.17-.46.26-.49.27a1.65,1.65,0,0,1-.41,0,1.48,1.48,0,0,1-.82.4,1.11,1.11,0,0,1-.3-.08c0-.21,0-.39,0-.53a3.45,3.45,0,0,0-.08-.65,1.4,1.4,0,0,1,0-.33,4.48,4.48,0,0,1,.17-.66l0-.46.08-.63-.06-.4L273.18,98l-1.71-1.18,0-.27.15-.76.19-.53s-.13-.28-.38-.75a.6.6,0,0,1-.06-.24,8.16,8.16,0,0,1,.31-.88,3.59,3.59,0,0,0,.26-1.13l-.49-.26v-.71c0-.32,0-.53,0-.63s.08-.35.23-.93a1.25,1.25,0,0,0,0-.33c0-.49,0-1-.08-1.64a4.48,4.48,0,0,1,0-.59,3.32,3.32,0,0,1,.33-1,5,5,0,0,1,.13-1l-.44-.52V80a1.12,1.12,0,0,0,.36-.42,8.78,8.78,0,0,1,.33-.82,2.76,2.76,0,0,1-.71-.38,3.84,3.84,0,0,0,.14-.73c0-.14-.12-.28-.37-.42a3.22,3.22,0,0,1-.07-.76l0-.86a1.7,1.7,0,0,1,.3-.65.29.29,0,0,0,.06-.17,2.9,2.9,0,0,0-.12-.41,2.37,2.37,0,0,0-.13-.39l-.07-.13,1.58-1.11-1.07-1.45A4.86,4.86,0,0,1,271,70a3.53,3.53,0,0,1,.13-.7A4.8,4.8,0,0,0,271.22,68.62Z"/><path class="cls-1" d="M292,87l.67-.43a4.47,4.47,0,0,0,.44.49,2.43,2.43,0,0,0,.45.21,18.86,18.86,0,0,1,1.8,1.76,3.3,3.3,0,0,1,.7,1c.11.27.23.59.35,1,.09.2.19.45.3.76l-.15.14a3.36,3.36,0,0,1-.63-.19l-.8.3-.71-.13-.63.17a13.61,13.61,0,0,0-1.37-.92,4.26,4.26,0,0,0-1,.86c-.89-.17-1.37-.25-1.43-.25a6.43,6.43,0,0,0-.8.06l-.1-.09c-.23,0-.84.05-1.83.05l-.78.08-1,.08-1,.17-.89,0a12.83,12.83,0,0,1-1.66.44,5.24,5.24,0,0,1-.21,1,2.11,2.11,0,0,1-.5.69c.45.31.68.53.71.66a9.89,9.89,0,0,0,.4,1.8l.38.21-.1.78.65.17a2.31,2.31,0,0,0,.54,1.16,2.09,2.09,0,0,0,1.06.38c.07.43.18.69.33.77a1.61,1.61,0,0,0,.76.17l.36.55a2,2,0,0,1,.4,0,8,8,0,0,1,1.26.52,1.11,1.11,0,0,0,.54.13,5.12,5.12,0,0,0,1.08-.25l1.34-.15,1-.3a4.6,4.6,0,0,0,1-.12,11.9,11.9,0,0,0,1.3-.74,4.45,4.45,0,0,0,1.07-.78,6.06,6.06,0,0,0,.72-1,.67.67,0,0,1,.59-.25,1,1,0,0,1,.54.28,3.89,3.89,0,0,1-.27,1q-.89,1.5-1.11,2a1.29,1.29,0,0,0-.47-.13,2.27,2.27,0,0,0-.69.42,1.94,1.94,0,0,1-1,.3,14.54,14.54,0,0,1-1.8.42,8.08,8.08,0,0,0-1.1.15l-.67.21-1.24-.19-.74.12-.35,0a5.62,5.62,0,0,1-.78.07c-.18,0-.69-.05-1.54-.15l-.39,0-.45-.28c-1-.32-1.63-.51-1.74-.56a8.2,8.2,0,0,1-.72-.63s-.27-.18-.73-.47-.6-.42-.63-.54l-.38-.67a4.65,4.65,0,0,0-.72-.8,1.17,1.17,0,0,0,.21-.51s-.18-.43-.54-1.18a5.72,5.72,0,0,1-.15-1.78,6.47,6.47,0,0,1,.3-1.52,3.89,3.89,0,0,1,.35-.94l.72-.84.46-1c.48-.45,1-1,1.64-1.51l1.53-.95,1.56-1.07.57-.11,1.6-.5,1-.09a12.07,12.07,0,0,1,1.36-.46A1.57,1.57,0,0,1,292,87Zm-2.44,3.15.36.44.57-.11a5.37,5.37,0,0,0,1.13-.29l1.2.11a.6.6,0,0,0,.1-.21,1,1,0,0,0,0-.21.8.8,0,0,0-.26-.47l-.21-.25q-.49-.67-.63-.63l-.69-.34a1.56,1.56,0,0,1-.4-.48,16.92,16.92,0,0,0-2.08-.08l-.42,0-.72.42s-.41.12-1.15.29-1.11.41-1.56.61c-.1.07-.37.31-.82.71l-.48.38v.13l0,0,1.53.61.47.46.82-1a.38.38,0,0,1,.23-.08s.38.09,1,.27h0a7.35,7.35,0,0,0,1.2-.21A4.23,4.23,0,0,1,289.53,90.19Z"/><path class="cls-1" d="M305.74,93.43l.13-.76a2.25,2.25,0,0,1-.49,0,1.35,1.35,0,0,1-.57-.44A9.69,9.69,0,0,0,303.24,91c-.07-.59-.11-.9-.11-.93a.46.46,0,0,0-.19-.27l-.69.1c-.27-.28-.45-.46-.55-.54a9.46,9.46,0,0,1-1.3-1.24,6.75,6.75,0,0,1,1.26-1.16,10.12,10.12,0,0,1,1.68-.53,2.17,2.17,0,0,0,.28.53l.61.65.67.88.42.53a4.18,4.18,0,0,0,.46.9,1.13,1.13,0,0,0,.69.21,9,9,0,0,0,.78.84,5.63,5.63,0,0,1,.91,1.14,2.08,2.08,0,0,1-.09.55,1.17,1.17,0,0,0,.74.46,8.42,8.42,0,0,0,.95-1.22c.72,0,1.09-.27,1.09-.82,0-.11,0-.25,0-.4l1.3-1.35v-.23a1.12,1.12,0,0,1,.06-.35s.19-.26.53-.68a2.51,2.51,0,0,0,.29-.48,2.93,2.93,0,0,1,.32-.52,4.83,4.83,0,0,1,.52-.41,3,3,0,0,1,1.24-.67c.33,0,.49.16.49.46a1.19,1.19,0,0,1-.15.53c0,.06-.33.44-.9,1.16l-.59.92-.82.82L312.3,91l-.57.52-.52.59c-1.14,1-1.69,1.77-1.67,2.17l.74.06.36.5h.4c.49.55,1.12,1.19,1.89,1.94a8.64,8.64,0,0,0,1.39,1.11l-.11.63a1.12,1.12,0,0,1,.76.36l.33-.13a8.13,8.13,0,0,0,1.1,1,9.22,9.22,0,0,1,1.18,1,3.68,3.68,0,0,1,.25.59,4,4,0,0,1-1,1l-.68.39a1.74,1.74,0,0,1-.73.38.62.62,0,0,1-.44-.27l-2.38-2.63-.69-1.45-.51.09a7.71,7.71,0,0,1-.9-.87,4.87,4.87,0,0,0-1-1c-.22-.13-.44-.26-.65-.4a2.39,2.39,0,0,0-.5-1.16H308a1.35,1.35,0,0,0-.25.51,1.51,1.51,0,0,1-.15.38s-.29.26-.78.67a6.54,6.54,0,0,1-1.89,1.89,3.59,3.59,0,0,0-1,1.47,13,13,0,0,1-1,1.37,4.27,4.27,0,0,1-1.07.8l-.15.48a.62.62,0,0,1-.42.19c-.74,0-1.11-.27-1.11-.8a1.2,1.2,0,0,1,.36-.69A14.37,14.37,0,0,1,303,99.33l.47-.37s.43-.57,1.23-1.6l.52-.47a5.39,5.39,0,0,0,.59-.58,8.57,8.57,0,0,1,.57-.68c.38-.38.57-.64.57-.8s-.16-.37-.47-.65A7.58,7.58,0,0,1,305.74,93.43Z"/><path class="cls-1" d="M209.44,152.11c-.49,2.52-.92,5.25-1.31,8.19a95.27,95.27,0,0,1-18.83,2.09,46.86,46.86,0,0,1-14.7-2.33,32.83,32.83,0,0,1-12.34-7.17,28.78,28.78,0,0,1-7.64-11.42,40.75,40.75,0,0,1-2.4-14.08,45.82,45.82,0,0,1,2.66-15.49,32.21,32.21,0,0,1,8.06-12.65,34.36,34.36,0,0,1,13-7.77,49.33,49.33,0,0,1,16-2.59,86.71,86.71,0,0,1,17.89,1.88q.06,2.64.58,8.09a68.31,68.31,0,0,0-9.86-2.38,53,53,0,0,0-7.72-.6A37.16,37.16,0,0,0,181,97.79a26.78,26.78,0,0,0-10.07,6.07,27.56,27.56,0,0,0-6.7,10.25,35.1,35.1,0,0,0-2.32,12.65,36,36,0,0,0,1.85,11.58,23.14,23.14,0,0,0,5.69,9.26,25.94,25.94,0,0,0,9.1,5.79,33,33,0,0,0,11.84,2A66.68,66.68,0,0,0,209.44,152.11Z"/><path class="cls-1" d="M238.35,107.2a34.21,34.21,0,0,1,10.43,1.57,22.06,22.06,0,0,1,8.58,5,21.62,21.62,0,0,1,5.51,8.56,31.65,31.65,0,0,1,1.87,10.9,35.43,35.43,0,0,1-2,11.89,27.62,27.62,0,0,1-5.63,9.65,21.49,21.49,0,0,1-8.87,5.81A33.34,33.34,0,0,1,237,162.39a32.81,32.81,0,0,1-10.53-1.67,22.18,22.18,0,0,1-8.58-5.22,22.91,22.91,0,0,1-5.5-8.68,31,31,0,0,1-1.88-10.77,33.35,33.35,0,0,1,3.44-15.31,22.35,22.35,0,0,1,10.12-10.17A31.22,31.22,0,0,1,238.35,107.2Zm-.24,6.63a18.62,18.62,0,0,0-9.76,2.66,15.77,15.77,0,0,0-6.59,8,31.24,31.24,0,0,0-2.13,11.66,26.48,26.48,0,0,0,1.77,9.94,15.26,15.26,0,0,0,5.83,7.12,17.29,17.29,0,0,0,9.79,2.71,20.75,20.75,0,0,0,7.4-1.33,15,15,0,0,0,6.09-4.41,19.58,19.58,0,0,0,3.85-7.54,34.23,34.23,0,0,0,1.25-9.36,28.63,28.63,0,0,0-1.25-8.61,14.58,14.58,0,0,0-3.82-6.44,14.75,14.75,0,0,0-5.84-3.41A22.5,22.5,0,0,0,238.11,113.83Z"/><path class="cls-1" d="M266.43,161.24q2.49-32.7,2.6-52.84l4.69,0c1.15,0,2.67,0,4.55,0l-.69,10.43c.87-1.46,1.56-2.58,2.08-3.36a17.55,17.55,0,0,1,9.34-6.78,30.51,30.51,0,0,1,4.88-1.12,32.92,32.92,0,0,1,4.93-.37,34,34,0,0,1,8.66,1.1,15.81,15.81,0,0,1,6.86,3.57,12.13,12.13,0,0,1,3.6,5.55,23.2,23.2,0,0,1,.92,6.63c0,.45,0,1.32-.05,2.61s-.11,3-.21,5.06l-1,21.85c-.06,2.09-.12,4.64-.15,7.67-1.57-.07-3-.11-4.44-.11-1.71,0-3.31,0-4.8.11q.52-6.31.78-12.15l.69-12.16q.31-6.26.31-9.44a14.8,14.8,0,0,0-1.56-7.33,10.22,10.22,0,0,0-5-4.22,19.38,19.38,0,0,0-7.73-1.49,18.39,18.39,0,0,0-10.39,2.87,17.43,17.43,0,0,0-6.17,7.56,35.51,35.51,0,0,0-2.14,10.33q-.79,8.19-1.11,26c-1.94-.07-3.45-.11-4.52-.11S268.61,161.17,266.43,161.24Z"/><path class="cls-1" d="M361.79,153.31c-.07.56-.25,1.59-.55,3.1s-.54,3-.75,4.46a53.44,53.44,0,0,1-7.33,1.2q-3.53.31-6.18.32a34.23,34.23,0,0,1-10.41-1.52,20.53,20.53,0,0,1-8.32-5,20.79,20.79,0,0,1-5.21-8.6,34.66,34.66,0,0,1-1.67-10.83,39.3,39.3,0,0,1,2.71-14.55,22.65,22.65,0,0,1,8.55-10.8q5.85-3.9,15.91-3.91a53.1,53.1,0,0,1,14.45,2c.21,3,.4,5.39.57,7.31a65.44,65.44,0,0,0-8.08-2.12,34.28,34.28,0,0,0-5.79-.54,19.5,19.5,0,0,0-8.22,1.66,17.62,17.62,0,0,0-6.18,4.75,18.77,18.77,0,0,0-3.67,7.3,33.35,33.35,0,0,0-1.12,8.61,27,27,0,0,0,1.82,10.33,13.5,13.5,0,0,0,6.39,6.86A21.57,21.57,0,0,0,349,155.76,41.24,41.24,0,0,0,361.79,153.31Z"/><path class="cls-1" d="M408.39,152.94c-.42,1.92-.84,4.35-1.26,7.31a72,72,0,0,1-8.68,1.69,60.34,60.34,0,0,1-7.33.45,40.62,40.62,0,0,1-11.71-1.57,20.06,20.06,0,0,1-8.89-5.45,22.85,22.85,0,0,1-5.32-8.89,34.21,34.21,0,0,1-1.62-10.59,34.94,34.94,0,0,1,3-14.42A23.45,23.45,0,0,1,375.5,111q6-3.81,15.15-3.81a29.77,29.77,0,0,1,9.08,1.38,17.88,17.88,0,0,1,7.19,4.2,19,19,0,0,1,4.44,7,25.48,25.48,0,0,1,1.56,9.05,20.91,20.91,0,0,1-.31,3.65h-39.8q-.21,2.87-.21,4.38a22.36,22.36,0,0,0,2.3,10.09,15.5,15.5,0,0,0,6.78,7A21.77,21.77,0,0,0,392,156.28Q398.73,156.28,408.39,152.94Zm-35.16-24.82h31.09a30.78,30.78,0,0,0-.42-5.11,14.85,14.85,0,0,0-1.36-3.79,10.85,10.85,0,0,0-2.68-3.39,12,12,0,0,0-4.07-2.19,17,17,0,0,0-5.14-.75,19.18,19.18,0,0,0-5.66.83,16.77,16.77,0,0,0-4.75,2.3,15.28,15.28,0,0,0-3.49,3.41,16.69,16.69,0,0,0-2.14,3.78A35.12,35.12,0,0,0,373.23,128.12Z"/><path class="cls-1" d="M412.52,184.81q1.05-13.45,2-36.61t1-37.87q8.55-1.83,13.69-2.48a82.45,82.45,0,0,1,10.3-.65,35.57,35.57,0,0,1,14.13,2.58,18.76,18.76,0,0,1,9.33,9.08,31.7,31.7,0,0,1,3.34,14.68,38.66,38.66,0,0,1-1.57,11A28.64,28.64,0,0,1,460,154a20.73,20.73,0,0,1-7.76,6.28,23.66,23.66,0,0,1-10.12,2.12,25.1,25.1,0,0,1-6.42-.81,21.71,21.71,0,0,1-5.35-2.12,16.11,16.11,0,0,1-3.81-2.92,37.88,37.88,0,0,1-3.73-4.85l-.64,20.66q-.21,5.06-.21,7.3v5.16c-1.77-.07-3.31-.1-4.62-.1S414.49,184.74,412.52,184.81Zm12-68.27-.37,4-.26,5.43q-.21,4.27-.31,7c-.07,1.79-.11,3.05-.11,3.78a31.71,31.71,0,0,0,.81,7.3,14.81,14.81,0,0,0,3.24,6.29,15.92,15.92,0,0,0,5.71,4.3A16.42,16.42,0,0,0,440,156a15.46,15.46,0,0,0,8.89-2.71,17.62,17.62,0,0,0,6.23-8.08,30.14,30.14,0,0,0,2.25-11.74A24.32,24.32,0,0,0,455,122.43a14.76,14.76,0,0,0-6.31-6.7,19.25,19.25,0,0,0-9-2.06A45.67,45.67,0,0,0,424.47,116.54Z"/><path class="cls-1" d="M495,154.35q-.57,2.57-1.25,6.78a46.15,46.15,0,0,1-5.64,1.05,39.59,39.59,0,0,1-4,.21,20,20,0,0,1-7.49-1.18,8.79,8.79,0,0,1-4.35-3.75,13.86,13.86,0,0,1-1.51-7c0-.38,0-1.06.05-2s.21-4.37.53-10.17l1.27-23.37h-7c.13-1.46.26-3.55.36-6.26h7.11c.18-2,.35-5.27.53-10,3.26-.63,6-1.22,8.27-1.78q-.36,7.72-.41,11.74H496c-.17,2.19-.28,4.28-.31,6.26H481.24l-1.39,29.36-.05,2.25a14.6,14.6,0,0,0,.85,5.71,5.44,5.44,0,0,0,2.58,2.74,8.21,8.21,0,0,0,3.59.83,20.62,20.62,0,0,0,2.82-.21Q491.14,155.34,495,154.35Z"/><path class="cls-1" d="M491.94,160.25l-.31-3.84q0-.63-.42-4a37.4,37.4,0,0,0,14.81,3.5,16.72,16.72,0,0,0,6-.94,7.44,7.44,0,0,0,3.68-2.78,6.85,6.85,0,0,0,1.22-3.82,7.18,7.18,0,0,0-.34-2.18,8,8,0,0,0-1-2.11,13.23,13.23,0,0,0-2-2.23c-.89-.82-2.73-2.35-5.53-4.61s-4.92-4-6.36-5.3A27.48,27.48,0,0,1,498,128a15.39,15.39,0,0,1-2.27-4,12.3,12.3,0,0,1-.73-4.12,11.39,11.39,0,0,1,2.12-6.47,12.52,12.52,0,0,1,6.1-4.67,25.86,25.86,0,0,1,9.36-1.54,69.12,69.12,0,0,1,13.2,1.41q.21,4.06.52,7.46a30.17,30.17,0,0,0-11.53-2.4,19.36,19.36,0,0,0-5.71.81,7.42,7.42,0,0,0-3.86,2.42,5.72,5.72,0,0,0-1.22,3.55,7,7,0,0,0,.41,2.4,9.24,9.24,0,0,0,1.49,2.48,20.46,20.46,0,0,0,2.58,2.63q1.51,1.31,6,4.9a78.18,78.18,0,0,1,6.18,5.32,24.41,24.41,0,0,1,2.87,3.55,14,14,0,0,1,1.74,3.63,12.37,12.37,0,0,1,.55,3.67,11.67,11.67,0,0,1-2.16,6.78,13.78,13.78,0,0,1-6.45,4.85,25.44,25.44,0,0,1-9.59,1.73c-1.5,0-3.25-.1-5.27-.29s-3.73-.42-5.14-.68S494,160.77,491.94,160.25Z"/><path class="cls-2" d="M522.25,93.67l3.67,0a.46.46,0,0,0,.19,0c1.88-.36,3.12.53,4.36,1.86,2.61,2.78,5.36,5.42,8.07,8.1.77.77,1.37,1.7,2.22,2.4a.7.7,0,0,1,.25.6,27.79,27.79,0,0,1-.08,3.16l0,2.25c-.57.27-.81-.23-1.1-.52-2.18-2.15-4.33-4.32-6.5-6.48a2.44,2.44,0,0,0-.86-.7,10.48,10.48,0,0,0-.13,2.23c0,.37.18.85-.38,1a33,33,0,0,1,.12-4.22c.07-.64-.16-.82-.79-.82a16,16,0,0,1-3.24-.13c.5-.48,1.18-.08,1.79-.37a3.13,3.13,0,0,0-.94-1.27c-2-2-4.07-4.07-6.09-6.11C522.48,94.48,522,94.24,522.25,93.67Z"/><path class="cls-3" d="M531.91,107.69a12.31,12.31,0,0,0,.16-3c0-.24-.13-.57.16-.69s.44.2.61.37l7.13,7.12c.27.27.47.63.91.66,0,1.59.25,3.21-.73,4.64-.34-.06-.53-.33-.75-.55l-6.83-6.82a2.8,2.8,0,0,1-.67-.92Z"/><path class="cls-4" d="M540.93,109.87a2,2,0,0,1,0-.48c.53-2.19-.68-3.64-2.08-5q-5.12-5.09-10.16-10.21a1.16,1.16,0,0,0-.86-.29,5.23,5.23,0,0,1-1.89-.14c2.18-.09,4.35.12,6.53.17,2.76,3.06,5.82,5.82,8.64,8.82A68.64,68.64,0,0,1,540.93,109.87Z"/><path class="cls-5" d="M522.25,93.67c0,.44.38.65.65.91l6.17,6.18c.47.46,1.25,1.08,1.07,1.54s-1.14.11-1.76.2a2.38,2.38,0,0,1-.38,0l-1.9,0a3.6,3.6,0,0,1-1.05-.81c-2-2-4-4-5.95-6a16.35,16.35,0,0,0-1.62-1.49C519,93.14,520.63,93.56,522.25,93.67Z"/><path class="cls-6" d="M541.09,102.7c-.4,0-.6-.33-.84-.58-2.36-2.34-4.71-4.7-7.06-7.05a2.11,2.11,0,0,1-.74-1.19h1.17a16.94,16.94,0,0,0,2.57,0,1.87,1.87,0,0,1,1.45.58c1.08,1.09,2,2.31,3.14,3.35a1.13,1.13,0,0,1,.41.84,30.25,30.25,0,0,1-.08,3.81A.23.23,0,0,1,541.09,102.7Z"/><path class="cls-3" d="M531.9,108.47c2.81,2.71,5.6,5.43,8.25,8.29a3.38,3.38,0,0,1-2.1,1.76,20.64,20.64,0,0,1-3.57-3.42c-.78-.83-1.56-1.66-2.35-2.48-.16,1,.26,2-.26,3a10.48,10.48,0,0,1-.1-3.4C531.75,111,531.85,109.71,531.9,108.47Z"/><path class="cls-3" d="M517.48,94.24a.83.83,0,0,1,.7.24l7.92,8a60.84,60.84,0,0,1-6.19-.16c.52-.46,1.15-.16,1.71-.26-1.94-1.77-3.58-3.86-5.5-5.68a.67.67,0,0,1-.2-.42A3.69,3.69,0,0,1,517.48,94.24Z"/><path class="cls-1" d="M531.87,115.59v-3.3l.21-.1,6,6.33A4.43,4.43,0,0,1,531.87,115.59Z"/><path class="cls-3" d="M515.92,96c2.21,1.85,3.9,4.19,6.13,6.21a10.92,10.92,0,0,1-2.14.15C516.42,102.19,514.36,98.91,515.92,96Z"/><path class="cls-7" d="M541.11,102.52c-.11-1.36.41-2.87-.23-4.06s-1.93-1.93-2.74-3A3.15,3.15,0,0,0,534.92,94a1.69,1.69,0,0,1-1.3-.13c2.39,0,4.78.11,7.18.15.32,0,.58,0,.55.46C541.22,97.17,541.42,99.85,541.11,102.52Z"/><path class="cls-1" d="M138.8,1.91c0-.51.26-1.42-.4-1.41s-.28.93-.28,1.43q0,58.22,0,116.44t0,116.44c0,.47-.25,1.35.26,1.34.77,0,.41-.88.41-1.36Q138.82,118.35,138.8,1.91Z"/><path class="cls-1" d="M138.37,236.65a.77.77,0,0,1-.58-.24,1.61,1.61,0,0,1-.2-1.26,2.24,2.24,0,0,0,0-.34q0-54.8,0-109.59v-13q0-55.15,0-110.31c0-.1,0-.23,0-.36a1.6,1.6,0,0,1,.18-1.29.82.82,0,0,1,.62-.28.8.8,0,0,1,.69.27,1.66,1.66,0,0,1,.24,1.32c0,.12,0,.23,0,.32q0,116.45,0,232.88c0,.09,0,.2,0,.31a1.48,1.48,0,0,1-.18,1.24,1,1,0,0,1-.76.31Z"/><path class="cls-8" d="M59,112.84c-4.55-.74-8.06-3-10.09-7.21s-.88-9.25,4.93-9.72a6.31,6.31,0,0,1,2.21,0c4.79,1.24,8.35,3.86,9.81,8.8,1.21,4.09-.46,7.11-4.33,8.12A9.32,9.32,0,0,1,59,112.84Z"/><path class="cls-8" d="M26.39,150.14c-2.32-3.8-2.52-7.63,0-11.39,3-4.47,9-4.78,13.05-1.74a9.51,9.51,0,0,1,2.76,12.51,3.57,3.57,0,0,1-2.47.5C35.29,150.08,30.84,149.9,26.39,150.14Z"/><path class="cls-8" d="M75.75,104.44c-5.37-.66-10.17-6.13-10.31-10.82-.09-3.09,2.12-4.74,5.06-4.36a12,12,0,0,1,10.06,9c.74,3.3-.08,4.8-3.24,6.14A3.21,3.21,0,0,1,75.75,104.44Z"/><path class="cls-1" d="M86.69,138.87c1.62,4.49,1.35,8.69-2.12,12.26-2.47,2.54-5.54,2.22-8,0A10.5,10.5,0,0,1,73.39,144a25,25,0,0,1,0-4.15l.21-1.28a15.74,15.74,0,0,1,4.44-.2c2.18,0,4.36,0,6.54,0A3,3,0,0,1,86.69,138.87Z"/><path class="cls-3" d="M88,130.13a16,16,0,0,1,.78-5.1c1.08-2.89,4.8-3.17,6.82-1.58a11.29,11.29,0,0,1,4.33,8c.07.63.2,1.25.31,1.88-.36.5,0,1.11-.26,1.62a17.84,17.84,0,0,1-1.29,3.07c-1.69,2.51-4.62,2.72-6.81.61a12.23,12.23,0,0,1-3.62-6.91C88,131.25,88.34,130.63,88,130.13Z"/><path class="cls-8" d="M70.22,129.6a12.43,12.43,0,0,1-1,5.6A7.21,7.21,0,0,1,59.67,139a12.07,12.07,0,0,1-7.48-9.47c-.32-.57.09-.78.49-.94a4,4,0,0,1,1.58-.2q6.89,0,13.77,0a4.26,4.26,0,0,1,1.58.22C70.09,128.75,70,129.24,70.22,129.6Z"/><path class="cls-6" d="M69.94,128.87c-5.39,0-10.78,0-16.17,0-.56,0-1.36-.36-1.58.61-1.14-4,.13-8.18,3-9.93a6.88,6.88,0,0,1,3.1-1.07,3.82,3.82,0,0,1,1.9,0c4.94,1.14,8.18,4.06,9.47,9a1.48,1.48,0,0,0,.27.4A1,1,0,0,1,69.94,128.87Z"/><path class="cls-8" d="M90.58,117c-3.72-1.91-5.23-5.32-6.21-9.1a7.79,7.79,0,0,1,0-2.55,3.36,3.36,0,0,1,2.66-3.6,4.07,4.07,0,0,1,1.9,0,11,11,0,0,1,7.8,12.85,7,7,0,0,1-1.34,2.32A14.32,14.32,0,0,1,90.58,117Z"/><path class="cls-8" d="M23.1,88.26c1.16-2.79,3.35-4.07,7.31-3.85a8.78,8.78,0,0,1,7,3.61,4.32,4.32,0,0,1-.84,5.79C33.27,96.72,24,95.2,23.12,90.48A5,5,0,0,1,23.1,88.26Z"/><path class="cls-8" d="M14.07,159.83c.66,4.87-2.78,8.64-8.66,7.65C2.53,167,.06,163.38,0,159.82c.42-.83,1.22-.79,2-.8q5.07,0,10.15,0C12.85,159,13.64,159,14.07,159.83Z"/><path class="cls-8" d="M85,170.14A9.74,9.74,0,0,1,80.81,179a4.32,4.32,0,0,1-4.86.4,4.58,4.58,0,0,1-2.11-4.18,11.7,11.7,0,0,1,1-5.35,2.83,2.83,0,0,1,1.81-.5c2.14,0,4.27,0,6.41,0C83.79,169.35,84.57,169.33,85,170.14Z"/><path class="cls-8" d="M70,81.23c-3-.84-5.6-2.25-6.81-5.36a2.74,2.74,0,0,1,2.34-4c3.76-.54,8.1,2.46,8.86,6.12.27,1.33-.53,2.53-2.19,3.29A7.72,7.72,0,0,1,70,81.23Z"/><path class="cls-8" d="M105.34,143.4c.33-2.77,1.54-4.35,3.39-4.46,1.59-.1,3.2,1.45,3.88,3.86.8,2.84.82,5.58-1.45,7.84-1.3,1.3-3,1.07-4.2-.35a7.6,7.6,0,0,1-1.63-5.31A3,3,0,0,1,105.34,143.4Z"/><path class="cls-8" d="M104.15,106.75A8.44,8.44,0,0,1,100,97.91a2.15,2.15,0,0,1,1.88-1.68,5,5,0,0,1,1.89,0,8.82,8.82,0,0,1,5.09,6.49c.49,2.39-.79,4.14-3.1,4.22C105.25,106.62,104.68,106.87,104.15,106.75Z"/><path class="cls-8" d="M14.07,159.83a3.78,3.78,0,0,0-1.05-.3q-6,0-12,0a4.12,4.12,0,0,0-1,.29c.11-3.38,1.66-5.51,4.33-6.42,2.94-1,6.91.79,8.43,3.07A7.52,7.52,0,0,1,14.07,159.83Z"/><path class="cls-8" d="M12.81,78.16c1.27.55,2.55,1.25,2.5,2.8a4,4,0,0,1-2.68,3.47c-2,.95-4.13.69-6.17.48C5,84.77,4.45,83.29,4.18,82c-.18-.87,1.6-3,2.65-3.36.5-.18,1-.31,1.53-.46A30,30,0,0,1,12.81,78.16Z"/><path class="cls-8" d="M71.77,195.65a7,7,0,0,1,4.93-5.86,5.58,5.58,0,0,1,2.23-.06c1.81,1.61,2.14,2.72,1.26,4.89a7.5,7.5,0,0,1-4.7,4.44c-1.73.6-2.94,0-3.71-1.84A3.78,3.78,0,0,1,71.77,195.65Z"/><path class="cls-8" d="M26.39,150.14c.22-1,1-.61,1.57-.61,4.75,0,9.5,0,14.25,0-1.09,2.85-3.51,4-6.17,4.9a14.22,14.22,0,0,1-3.51,0C29.94,153.77,27.7,152.62,26.39,150.14Z"/><path class="cls-8" d="M86.69,138.87H75.45a2.93,2.93,0,0,1-1.86-.29A8.41,8.41,0,0,1,76,134.27c1.7-1.88,4.9-2,7.14-.25A9.45,9.45,0,0,1,86.69,138.87Z"/><path class="cls-8" d="M116.55,98.86c-1.94.29-2.9-.91-3.74-2.33a4.32,4.32,0,0,1,0-4.54c.49-.87,3.29-1,4.46-.31a5.2,5.2,0,0,1,2,5.21C118.85,98.24,118.16,99.22,116.55,98.86Z"/><path class="cls-8" d="M66.65,65.34c-2.42.21-5.54-2.34-5.36-4.57A1.83,1.83,0,0,1,62.7,59a6.06,6.06,0,0,1,6.92,3C70.52,63.85,69.2,65.36,66.65,65.34Z"/><path class="cls-8" d="M123.18,156.27a6.72,6.72,0,0,1-.49,1.17c-.76,1.16-1.55,2.32-3.24,2s-1.86-1.61-2.18-2.88a7.47,7.47,0,0,1,0-2.54c.33-1.09.42-2.36,1.42-3.05a2.77,2.77,0,0,1,4.11,1.54c.16.39.29.79.43,1.19A7.73,7.73,0,0,1,123.18,156.27Z"/><path class="cls-8" d="M85,170.14c-1-.59-2.2-.27-3.3-.29-2.29,0-4.58,0-6.87,0,1-1.76,2-3.56,4.16-4.19,3-.85,5,.39,5.77,3.44C84.85,169.43,84.92,169.79,85,170.14Z"/><path class="cls-8" d="M12.81,78.16H8.36A8.83,8.83,0,0,1,12.81,78.16Z"/><path class="cls-8" d="M32.53,154.42H36A5.22,5.22,0,0,1,32.53,154.42Z"/><path class="cls-1" d="M353.55,205.15a3.6,3.6,0,0,0,3.43,3.67,3.16,3.16,0,0,0,3.24-2.15h-3v-1.95H363v.39a6.06,6.06,0,1,1-6-6.06,6.12,6.12,0,0,1,5.75,4.14h-2.86a3,3,0,0,0-2.89-1.71A3.6,3.6,0,0,0,353.55,205.15Z"/><path class="cls-1" d="M367.26,211h-2.59V199.23h4.41a3.64,3.64,0,0,1,3.6,3.77,3.57,3.57,0,0,1-2.68,3.67l3.38,4.33h-3.29l-2.81-4.21h0Zm0-9.73v3.48h1.39a1.62,1.62,0,0,0,1.56-1.75,1.64,1.64,0,0,0-1.56-1.73Z"/><path class="cls-1" d="M379.84,211.18a6.07,6.07,0,1,1,6.06-6.07A6.19,6.19,0,0,1,379.84,211.18Zm0-9.55a3.48,3.48,0,1,0,3.46,3.47A3.6,3.6,0,0,0,379.84,201.63Z"/><path class="cls-1" d="M397,199.23v7.18c0,3.14-1.8,4.77-4.87,4.77s-4.87-1.63-4.87-4.77v-7.18h2.6V206c0,1.63.5,2.55,2.27,2.55s2.27-.92,2.27-2.55v-6.8Z"/><path class="cls-1" d="M401.43,211h-2.6V199.23h4.42a3.64,3.64,0,0,1,3.6,3.77,3.57,3.57,0,0,1-3.6,3.79h-1.82Zm0-9.73v3.48h1.39a1.62,1.62,0,0,0,1.56-1.75,1.64,1.64,0,0,0-1.56-1.73Z"/><path class="cls-1" d="M424.2,207.43a6.18,6.18,0,0,1-1.3,1.94,6.11,6.11,0,0,1-1.93,1.29,5.89,5.89,0,0,1-2.36.48,5.76,5.76,0,0,1-2.34-.48,6.11,6.11,0,0,1-1.93-1.29,6.18,6.18,0,0,1-1.3-1.94,6,6,0,0,1-.47-2.35,6.06,6.06,0,0,1,.47-2.36,6,6,0,0,1,1.3-1.92,6.28,6.28,0,0,1,1.93-1.29,5.76,5.76,0,0,1,2.34-.48,5.89,5.89,0,0,1,2.36.48,6.28,6.28,0,0,1,1.93,1.29,6,6,0,0,1,1.3,1.92,6.06,6.06,0,0,1,.47,2.36A6,6,0,0,1,424.2,207.43ZM422,201.67a4.83,4.83,0,1,0,1.42,3.41A4.65,4.65,0,0,0,422,201.67Z"/><path class="cls-1" d="M428,200.35v4.19h5.62v1.15H428V211h-1.21V199.23h7v1.12Z"/><path class="cls-1" d="M451.21,207a6.08,6.08,0,1,1,0-3.81H448.3a3.15,3.15,0,0,0-2.86-1.71,3.64,3.64,0,0,0,0,7.27,3.21,3.21,0,0,0,2.87-1.75Z"/><path class="cls-1" d="M458.3,211.18a6.07,6.07,0,1,1,6.07-6.07A6.19,6.19,0,0,1,458.3,211.18Zm0-9.55a3.48,3.48,0,1,0,3.47,3.47A3.6,3.6,0,0,0,458.3,201.63Z"/><path class="cls-1" d="M477.84,211l-1.38-8.12L474.15,211h-2.54l-2.31-8.12L467.92,211h-2.86l2.29-11.77h3.08l2.46,8.26,2.44-8.26h3.08L480.7,211Z"/><path class="cls-1" d="M484.42,211h-2.6V199.23h4.42a3.65,3.65,0,0,1,3.6,3.77,3.57,3.57,0,0,1-3.6,3.79h-1.82Zm0-9.73v3.48h1.39a1.62,1.62,0,0,0,1.56-1.75,1.64,1.64,0,0,0-1.56-1.73Z"/><path class="cls-1" d="M497.91,211l-.85-2.37h-4.48l-.85,2.37h-2.79l4.78-11.77h2.2L500.7,211Zm-3.1-8.69-1.49,4.19h3Z"/><path class="cls-1" d="M508.48,211l-4.06-7.34V211h-2.59V199.23h2.59l4.06,7.34v-7.34h2.59V211Z"/><path class="cls-1" d="M513.15,211V199.23h2.6V211Z"/><path class="cls-1" d="M524.65,211h-6.82V199.23h6.82v2.35h-4.22v2.34h4.05v2.35h-4.05v2.38h4.22Z"/><path class="cls-1" d="M533.4,207.78c0-2.29-6.81-.81-6.81-5.16,0-2.42,2.25-3.57,4.4-3.57,2.43,0,4.61,1.08,4.69,3.76h-2.51c-.14-1.23-.85-1.63-2.15-1.63-.72,0-1.74.35-1.74,1.23,0,2.1,6.8.59,6.8,5.08,0,2.77-2.47,3.79-4.88,3.79-2.6,0-5-1.28-5-4.16h2.63a2.19,2.19,0,0,0,2.46,2C532.12,209.17,533.4,208.84,533.4,207.78Z"/></g></g></svg>