<svg id="Layer_1" data-name="Layer 1" xmlns="http://www.w3.org/2000/svg" viewBox="0 0 1290.13 504"><defs><style>.cls-1{fill:#1b75bc;}.cls-2{fill:#27aae1;}</style></defs><title>logo-dark</title><path class="cls-1" d="M105.93,249.76a37.11,37.11,0,0,1-25.32-9.93,35.61,35.61,0,0,1-7.83-10.91,35,35,0,0,1-3.22-13.57,31.81,31.81,0,0,1,0-8.39,35,35,0,0,1,3.22-13.57,35.49,35.49,0,0,1,7.83-10.91,37.11,37.11,0,0,1,25.32-9.93h52.59V187.1H105.93a21.76,21.76,0,0,0-21.82,20.42,23.32,23.32,0,0,0,0,7.27,21.76,21.76,0,0,0,21.82,20.42h21a36.67,36.67,0,0,1,13.85,2.66,35.39,35.39,0,0,1,11.47,7.41,37.48,37.48,0,0,1,7.83,11,34.79,34.79,0,0,1,3.21,13.57v8.39a33.24,33.24,0,0,1-2.93,14,37.31,37.31,0,0,1-8,11.33,37.8,37.8,0,0,1-11.61,7.69,35.67,35.67,0,0,1-14.13,2.8h-54V299.55h54a22,22,0,0,0,21.82-18.46,12.06,12.06,0,0,1,.14-1.82,13.4,13.4,0,0,0,.14-1.82v-5.87A22.05,22.05,0,0,0,142,256.19a21,21,0,0,0-15.38-6.43Z"/><path class="cls-1" d="M189.29,138.14h14.54v36.65H256.7v14.54H203.83v90.36a21,21,0,0,0,6.44,15.39,21.29,21.29,0,0,0,15.66,6.43,22,22,0,0,0,21.82-21.82H262.3A36.86,36.86,0,0,1,259.5,294a34.65,34.65,0,0,1-7.83,11.61,40,40,0,0,1-11.61,7.83,34.23,34.23,0,0,1-14.13,2.94,35.14,35.14,0,0,1-14.26-2.94A36.75,36.75,0,0,1,192.22,294a35.38,35.38,0,0,1-2.93-14.27Z"/><path class="cls-1" d="M347.62,170.59a71.92,71.92,0,0,1,28.53,5.74,72.63,72.63,0,0,1,39,39,71.92,71.92,0,0,1,5.74,28.53v69.94H406.08v-26a70.2,70.2,0,0,1-25,21.26,72.12,72.12,0,0,1-33.43,7.83,71,71,0,0,1-28.4-5.73,73.55,73.55,0,0,1-38.88-38.88,70.8,70.8,0,0,1-5.73-28.4,71.74,71.74,0,0,1,5.73-28.53,73.09,73.09,0,0,1,38.88-39A71,71,0,0,1,347.62,170.59Zm0,14.83A56.37,56.37,0,0,0,325,190a60.83,60.83,0,0,0-18.6,12.45,58.24,58.24,0,0,0-17.21,41.4,56.21,56.21,0,0,0,4.62,22.66A59.35,59.35,0,0,0,325,297.73a56.21,56.21,0,0,0,22.66,4.62A58.24,58.24,0,0,0,389,285.14a60.83,60.83,0,0,0,12.45-18.6,56.37,56.37,0,0,0,4.61-22.66,57.46,57.46,0,0,0-4.61-22.8A57.6,57.6,0,0,0,370.42,190,57.46,57.46,0,0,0,347.62,185.42Z"/><path class="cls-1" d="M517.69,172a72,72,0,0,1,28.54,5.73,72.69,72.69,0,0,1,39,39A71.92,71.92,0,0,1,591,245.28V385.15H576.44V289.2a72.61,72.61,0,0,1-58.75,29.09,70.92,70.92,0,0,1-28.39-5.73,73.46,73.46,0,0,1-38.88-38.88,70.81,70.81,0,0,1-5.74-28.4,71.75,71.75,0,0,1,5.74-28.53,73.06,73.06,0,0,1,38.88-39A70.92,70.92,0,0,1,517.69,172Zm0,14.83A56.15,56.15,0,0,0,495,191.43a60.88,60.88,0,0,0-18.61,12.45,58.18,58.18,0,0,0-17.2,41.4,56.37,56.37,0,0,0,4.61,22.66A59.33,59.33,0,0,0,495,299.13a56.16,56.16,0,0,0,22.65,4.62,57.23,57.23,0,0,0,22.8-4.62,58.89,58.89,0,0,0,31.33-31.19,56.21,56.21,0,0,0,4.62-22.66,58.29,58.29,0,0,0-17.2-41.4,60.57,60.57,0,0,0-18.75-12.45A57.22,57.22,0,0,0,517.69,186.82Z"/><path class="cls-2" d="M693.09,171.71a71.09,71.09,0,0,1,28.39,5.73A75.19,75.19,0,0,1,744.7,193a72.69,72.69,0,0,1,21.4,51.75A70,70,0,0,1,760.37,273a73.9,73.9,0,0,1-38.89,38.74,70.92,70.92,0,0,1-28.39,5.73,72.44,72.44,0,0,1-26.72-4.89,71.31,71.31,0,0,1-22.24-13.85v80.57h-24V244.72A72.69,72.69,0,0,1,641.48,193a75.19,75.19,0,0,1,23.22-15.53A71.06,71.06,0,0,1,693.09,171.71Zm0,24.06a49.08,49.08,0,0,0-45.18,68,47.08,47.08,0,0,0,10.49,15.53,52,52,0,0,0,15.67,10.49,48.1,48.1,0,0,0,38,0,52,52,0,0,0,15.67-10.49,47.08,47.08,0,0,0,10.49-15.53,48.87,48.87,0,0,0-45.18-68Z"/><path class="cls-2" d="M860.09,317.45a70.92,70.92,0,0,1-28.39-5.73A73.84,73.84,0,0,1,792.82,273a69.83,69.83,0,0,1-5.74-28.26A72.8,72.8,0,0,1,808.48,193a75.19,75.19,0,0,1,23.22-15.53,73.22,73.22,0,0,1,56.79,0,72.05,72.05,0,0,1,38.6,38.75,71.92,71.92,0,0,1,5.74,28.53v4.2q0,2.24-.56,7.55H812.82a45.92,45.92,0,0,0,6.43,14.83,53.42,53.42,0,0,0,10.63,11.75,47.34,47.34,0,0,0,30.21,10.63,28.84,28.84,0,0,0,13.43-3.5,56.73,56.73,0,0,0,12.87-9.37l16.78,16.78A79.65,79.65,0,0,1,882.89,312,50.87,50.87,0,0,1,860.09,317.45Zm47.28-84.76A56.82,56.82,0,0,0,900.8,218a47.31,47.31,0,0,0-10.49-11.75,49,49,0,0,0-13.85-7.69,49.22,49.22,0,0,0-32.73,0A48.44,48.44,0,0,0,819.25,218a47.91,47.91,0,0,0-6.43,14.68Z"/><path class="cls-2" d="M999.12,254.51a38.52,38.52,0,0,1-14.68-2.79,40.08,40.08,0,0,1-12.17-7.7,37.57,37.57,0,0,1-8.53-11.61,36,36,0,0,1-3.5-14.54,33.7,33.7,0,0,1,0-8.67,35.5,35.5,0,0,1,3.5-14.27,39.4,39.4,0,0,1,8.53-11.75,38.61,38.61,0,0,1,26.85-10.63h53.71v24.06H999.12a14.48,14.48,0,0,0-10.21,4A19.47,19.47,0,0,0,984,216.75a15.13,15.13,0,0,0,4.89,9.93,14.49,14.49,0,0,0,10.21,4.06h19.3a37.88,37.88,0,0,1,14.83,2.93,38.83,38.83,0,0,1,12.17,8,40.93,40.93,0,0,1,8.39,11.74,36.46,36.46,0,0,1,3.5,14.55v7.83a34.86,34.86,0,0,1-3.22,15,44.32,44.32,0,0,1-8.39,12.17,36.23,36.23,0,0,1-12.31,8.25,39.64,39.64,0,0,1-15.25,2.94H963V290.32h55.1a14,14,0,0,0,9.66-3.64,17.86,17.86,0,0,0,5.45-8.67v-1.12a2.94,2.94,0,0,1,.14-1,3.17,3.17,0,0,0,.14-1v-5.31a15.66,15.66,0,0,0-4.62-10.77,14.63,14.63,0,0,0-10.77-4.34Z"/><path class="cls-2" d="M1148.22,170.87a71.92,71.92,0,0,1,28.53,5.74,73.06,73.06,0,0,1,39,38.88,70.92,70.92,0,0,1,5.73,28.39v69.94h-24.33V298.15a74.32,74.32,0,0,1-22.24,13.57,72.45,72.45,0,0,1-26.72,4.9,69.91,69.91,0,0,1-28.25-5.74,75.26,75.26,0,0,1-23.08-15.53,72.08,72.08,0,0,1-15.67-23.07,73.22,73.22,0,0,1,0-56.79A73.81,73.81,0,0,1,1120,176.61,69.91,69.91,0,0,1,1148.22,170.87Zm0,24.06a48.4,48.4,0,0,0-19,3.78,46.88,46.88,0,0,0-15.53,10.49,51.8,51.8,0,0,0-10.49,15.66,48.24,48.24,0,0,0,0,38.05,49.3,49.3,0,0,0,26,26,47,47,0,0,0,19,3.92,47.64,47.64,0,0,0,19.3-3.92,50.11,50.11,0,0,0,15.53-10.49,49.45,49.45,0,0,0,10.35-53.57,49.82,49.82,0,0,0-10.35-15.66,46.88,46.88,0,0,0-15.53-10.49A49.1,49.1,0,0,0,1148.22,194.93Z"/><path class="cls-1" d="M711.92,334.86h5.23v7.42h10.64v5.17H717.15v17.09a3.1,3.1,0,0,0,.94,2.28,3.17,3.17,0,0,0,2.34.94,2.82,2.82,0,0,0,2.34-1.27,5.11,5.11,0,0,0,1-3.11h5.17a10.32,10.32,0,0,1-2.47,6.79,8.26,8.26,0,0,1-2.67,2.06,7.43,7.43,0,0,1-3.32.77,8.37,8.37,0,0,1-3.31-.67,8.64,8.64,0,0,1-2.71-1.83,8.74,8.74,0,0,1-1.83-2.68,8.11,8.11,0,0,1-.66-3.28Z"/><path class="cls-1" d="M745.43,341.49a11.63,11.63,0,0,1,4.72,1,12.64,12.64,0,0,1,3.86,2.61,12.51,12.51,0,0,1,2.61,3.87,11.59,11.59,0,0,1,1,4.71v18.92h-5.23V353.65a6.8,6.8,0,0,0-.55-2.71,7.2,7.2,0,0,0-1.49-2.19,7.39,7.39,0,0,0-2.19-1.49,6.73,6.73,0,0,0-2.71-.54,7,7,0,0,0-2.74.54,7.28,7.28,0,0,0-2.22,1.49,7.2,7.2,0,0,0-1.49,2.19,6.79,6.79,0,0,0-.54,2.71v18.92h-5.23V328h5.23v15.57a10.63,10.63,0,0,1,3.22-1.58A13.22,13.22,0,0,1,745.43,341.49Z"/><path class="cls-1" d="M763.13,328h5.23v7.06h-5.23Zm0,14.11h5.23v30.42h-5.23Z"/><path class="cls-1" d="M789.35,341.49a15.39,15.39,0,0,1,6.17,1.24,16.28,16.28,0,0,1,5.05,3.38,15.82,15.82,0,0,1,4.66,11.25v15.21H800V357.36a10.43,10.43,0,0,0-.83-4.13,10.55,10.55,0,0,0-2.25-3.41,10.35,10.35,0,0,0-3.37-2.28,10.66,10.66,0,0,0-4.2-.82,10.51,10.51,0,0,0-4.14.82,10.35,10.35,0,0,0-3.37,2.28,11,11,0,0,0-2.28,3.41,10.12,10.12,0,0,0-.86,4.13v15.21h-5.17V357.36a15.82,15.82,0,0,1,4.66-11.25,16.38,16.38,0,0,1,5-3.38A15.18,15.18,0,0,1,789.35,341.49Z"/><path class="cls-1" d="M810.64,328h5.17v26.65l12.53-12.54h7.3l-15.21,15.21,15.21,15.21h-7.3L815.81,360v12.53h-5.17Z"/><path class="cls-1" d="M868.49,373a15.27,15.27,0,0,1-6.15-1.25,16.33,16.33,0,0,1-5-3.38,15.66,15.66,0,0,1-3.41-5,15.88,15.88,0,0,1,0-12.35,16.15,16.15,0,0,1,8.42-8.45,15.27,15.27,0,0,1,6.15-1.25,11.32,11.32,0,0,1,5,1.19,16.44,16.44,0,0,1,4.44,3.19l-3.65,3.65a12.71,12.71,0,0,0-2.8-2,6.47,6.47,0,0,0-3-.76,10.52,10.52,0,0,0-4.14.83,10,10,0,0,0-3.37,2.28,11.25,11.25,0,0,0-2.29,3.4,10.51,10.51,0,0,0,0,8.28,10.87,10.87,0,0,0,2.29,3.37,10.56,10.56,0,0,0,3.37,2.28,10.19,10.19,0,0,0,4.14.85,6.55,6.55,0,0,0,3-.73,10.89,10.89,0,0,0,2.8-2.06l3.65,3.65a16.12,16.12,0,0,1-4.44,3.16A11.56,11.56,0,0,1,868.49,373Z"/><path class="cls-1" d="M896.23,341.49a15.42,15.42,0,0,1,6.17,1.24,16.28,16.28,0,0,1,5.05,3.38,15.76,15.76,0,0,1,4.65,11.25,15.47,15.47,0,0,1-1.24,6.18,15.78,15.78,0,0,1-3.41,5,16.28,16.28,0,0,1-5.05,3.38,15.43,15.43,0,0,1-6.17,1.25,15.27,15.27,0,0,1-6.15-1.25,16.5,16.5,0,0,1-5-3.38,15.86,15.86,0,0,1,0-22.44,16.5,16.5,0,0,1,5-3.38A15.26,15.26,0,0,1,896.23,341.49Zm0,5.23a10.51,10.51,0,0,0-4.14.82,10.74,10.74,0,0,0-3.41,2.28,10.63,10.63,0,0,0-2.28,3.41,10.84,10.84,0,0,0,0,8.27,10.25,10.25,0,0,0,2.28,3.37,11.29,11.29,0,0,0,3.41,2.29,10.48,10.48,0,0,0,8.27,0,11.17,11.17,0,0,0,3.41-2.29,10.25,10.25,0,0,0,2.28-3.37,10.84,10.84,0,0,0,0-8.27,10.53,10.53,0,0,0-5.69-5.69A10.46,10.46,0,0,0,896.23,346.72Z"/><path class="cls-1" d="M933.57,341.49a15.47,15.47,0,0,1,6.18,1.24,16.39,16.39,0,0,1,5,3.38,15.87,15.87,0,0,1,4.65,11.25v15.21h-5.23V357.36a10.43,10.43,0,0,0-.82-4.13,10.89,10.89,0,0,0-2.25-3.41,10.39,10.39,0,0,0-3.38-2.28,10.66,10.66,0,0,0-4.2-.82,10.46,10.46,0,0,0-4.13.82,10.29,10.29,0,0,0-3.38,2.28,11.33,11.33,0,0,0-2.28,3.41,10.11,10.11,0,0,0-.85,4.13v15.21h-5.17V357.36a15.87,15.87,0,0,1,4.65-11.25,16.38,16.38,0,0,1,5-3.38A15.21,15.21,0,0,1,933.57,341.49Z"/><path class="cls-1" d="M963.5,359.61a8.27,8.27,0,0,1-3.19-.61,8.69,8.69,0,0,1-2.65-1.67,8.14,8.14,0,0,1-1.85-2.52,7.86,7.86,0,0,1-.76-3.17,5.91,5.91,0,0,1-.06-.94,6,6,0,0,1,.06-.94,7.65,7.65,0,0,1,.76-3.1,8.47,8.47,0,0,1,4.5-4.26,8.27,8.27,0,0,1,3.19-.61h11.68V347H963.5a3.18,3.18,0,0,0-2.22.88,3.34,3.34,0,0,0-1.06,2.22,3.44,3.44,0,0,0,0,1.28,3.29,3.29,0,0,0,1.06,2.16,3.14,3.14,0,0,0,2.22.88h4.2a8.3,8.3,0,0,1,3.22.64,8.44,8.44,0,0,1,2.65,1.73,8.83,8.83,0,0,1,1.82,2.56,8,8,0,0,1,.77,3.16v1.71a7.64,7.64,0,0,1-.7,3.25,9.79,9.79,0,0,1-1.83,2.65,7.88,7.88,0,0,1-2.68,1.79,8.53,8.53,0,0,1-3.31.64h-12V367.4h12a3,3,0,0,0,2.1-.79,3.87,3.87,0,0,0,1.18-1.89v-.24a.66.66,0,0,1,0-.21.73.73,0,0,0,0-.22V362.9a3.35,3.35,0,0,0-1-2.34,3.18,3.18,0,0,0-2.34-.95Z"/><path class="cls-1" d="M996.17,341.49a15.39,15.39,0,0,1,6.17,1.24,16.28,16.28,0,0,1,5,3.38,15.78,15.78,0,0,1,0,22.44,16.28,16.28,0,0,1-5,3.38,15.8,15.8,0,0,1-12.32,0,16.33,16.33,0,0,1-5-3.38,15.83,15.83,0,0,1,0-22.44,16.33,16.33,0,0,1,5-3.38A15.26,15.26,0,0,1,996.17,341.49Zm0,5.23a10.51,10.51,0,0,0-4.14.82,10.74,10.74,0,0,0-3.41,2.28,10.77,10.77,0,0,0-2.28,11.68,10.25,10.25,0,0,0,2.28,3.37,11.29,11.29,0,0,0,3.41,2.29,10.48,10.48,0,0,0,8.27,0,11.17,11.17,0,0,0,3.41-2.29,10.25,10.25,0,0,0,2.28-3.37,10.84,10.84,0,0,0,0-8.27,10.53,10.53,0,0,0-5.69-5.69A10.43,10.43,0,0,0,996.17,346.72Z"/><path class="cls-1" d="M1017.46,328h5.17v36.62a2.85,2.85,0,0,0,1.31,2.37,5.08,5.08,0,0,0,3.13,1v5.17a10.4,10.4,0,0,1-3.74-.67,10,10,0,0,1-3-1.83,8.48,8.48,0,0,1-2.07-2.7,7.42,7.42,0,0,1-.76-3.32Z"/><path class="cls-1" d="M1030.78,328H1036v7.06h-5.23Zm0,14.11H1036v30.42h-5.23Z"/><path class="cls-1" d="M1057.06,341.42a15.36,15.36,0,0,1,5.81,1.1,16.62,16.62,0,0,1,4.83,3V328h5.17V357.3a15.47,15.47,0,0,1-1.24,6.18,15.82,15.82,0,0,1-8.4,8.39,15.43,15.43,0,0,1-6.17,1.25,15.27,15.27,0,0,1-6.15-1.25,16.5,16.5,0,0,1-5-3.38,15.75,15.75,0,0,1-3.4-5,15.88,15.88,0,0,1,0-12.35,16,16,0,0,1,8.42-8.46A15.27,15.27,0,0,1,1057.06,341.42Zm0,5.24a10.51,10.51,0,0,0-4.14.82,10.09,10.09,0,0,0-3.37,2.28,11.17,11.17,0,0,0-2.29,3.41,10.48,10.48,0,0,0,0,8.27,10.75,10.75,0,0,0,2.29,3.37,10.56,10.56,0,0,0,3.37,2.28,10.37,10.37,0,0,0,8.27,0,11,11,0,0,0,3.41-2.28,10.25,10.25,0,0,0,2.28-3.37,10.84,10.84,0,0,0,0-8.27,10.63,10.63,0,0,0-2.28-3.41,10.63,10.63,0,0,0-7.54-3.1Z"/><path class="cls-1" d="M1094.16,341.42a15.69,15.69,0,0,1,6.21,1.25,15.87,15.87,0,0,1,8.48,8.46,15.4,15.4,0,0,1,1.25,6.17v15.21h-5.29V369.1a16,16,0,0,1-4.84,2.95,15.71,15.71,0,0,1-5.81,1.07,15.18,15.18,0,0,1-6.14-1.25,16.38,16.38,0,0,1-5-3.38,15.57,15.57,0,0,1-4.65-11.19,15.39,15.39,0,0,1,1.24-6.17,16.09,16.09,0,0,1,8.43-8.46A15.18,15.18,0,0,1,1094.16,341.42Zm0,5.24a10.43,10.43,0,0,0-4.13.82,10.14,10.14,0,0,0-3.38,2.28,11.33,11.33,0,0,0-2.28,3.41,10.48,10.48,0,0,0,0,8.27,10.9,10.9,0,0,0,2.28,3.37,10.6,10.6,0,0,0,3.38,2.28,10.12,10.12,0,0,0,4.13.86,10.35,10.35,0,0,0,4.2-.86,10.72,10.72,0,0,0,3.38-2.28,10.48,10.48,0,0,0,2.25-3.37,10.84,10.84,0,0,0,0-8.27,10.89,10.89,0,0,0-2.25-3.41,10.24,10.24,0,0,0-3.38-2.28A10.66,10.66,0,0,0,1094.16,346.66Z"/><path class="cls-1" d="M1116.18,334.86h5.23v7.42h10.65v5.17h-10.65v17.09a3.11,3.11,0,0,0,.95,2.28,3.17,3.17,0,0,0,2.34.94,2.82,2.82,0,0,0,2.34-1.27,5.1,5.1,0,0,0,.94-3.11h5.17a10.24,10.24,0,0,1-2.46,6.79,8.19,8.19,0,0,1-2.68,2.06,7.35,7.35,0,0,1-3.31.77,8.42,8.42,0,0,1-3.32-.67,8.7,8.7,0,0,1-4.53-4.51,8.12,8.12,0,0,1-.67-3.28Z"/><path class="cls-1" d="M1137.41,328h5.23v7.06h-5.23Zm0,14.11h5.23v30.42h-5.23Z"/><path class="cls-1" d="M1163.45,341.49a15.42,15.42,0,0,1,6.17,1.24,16.28,16.28,0,0,1,5.05,3.38,15.76,15.76,0,0,1,4.65,11.25,15.47,15.47,0,0,1-1.24,6.18,15.78,15.78,0,0,1-3.41,5,16.28,16.28,0,0,1-5.05,3.38,15.43,15.43,0,0,1-6.17,1.25,15.27,15.27,0,0,1-6.15-1.25,16.5,16.5,0,0,1-5-3.38,15.86,15.86,0,0,1,0-22.44,16.5,16.5,0,0,1,5-3.38A15.26,15.26,0,0,1,1163.45,341.49Zm0,5.23a10.51,10.51,0,0,0-4.14.82,10.74,10.74,0,0,0-3.41,2.28,10.63,10.63,0,0,0-2.28,3.41,10.84,10.84,0,0,0,0,8.27,10.25,10.25,0,0,0,2.28,3.37,11.29,11.29,0,0,0,3.41,2.29,10.48,10.48,0,0,0,8.27,0,11.29,11.29,0,0,0,3.41-2.29,10.25,10.25,0,0,0,2.28-3.37,10.84,10.84,0,0,0,0-8.27,10.63,10.63,0,0,0-2.28-3.41,10.74,10.74,0,0,0-3.41-2.28A10.46,10.46,0,0,0,1163.45,346.72Z"/><path class="cls-1" d="M1200.79,341.49a15.47,15.47,0,0,1,6.18,1.24,16.39,16.39,0,0,1,5,3.38,15.87,15.87,0,0,1,4.65,11.25v15.21h-5.23V357.36a10.43,10.43,0,0,0-.82-4.13,10.89,10.89,0,0,0-2.25-3.41,10.39,10.39,0,0,0-3.38-2.28,10.66,10.66,0,0,0-4.2-.82,10.46,10.46,0,0,0-4.13.82,10.29,10.29,0,0,0-3.38,2.28,11.33,11.33,0,0,0-2.28,3.41,10.11,10.11,0,0,0-.85,4.13v15.21H1185V357.36a15.87,15.87,0,0,1,4.65-11.25,16.38,16.38,0,0,1,5-3.38A15.21,15.21,0,0,1,1200.79,341.49Z"/></svg>