<svg id="Layer_1" data-name="Layer 1" xmlns="http://www.w3.org/2000/svg" viewBox="0 0 1290.13 504"><defs><style>.cls-1{fill:#f1f2f2;}.cls-2{fill:#c92027;}.cls-3{fill:#a7a9ac;}</style></defs><title>logo-light</title><path class="cls-1" d="M105.32,273.34a36.84,36.84,0,0,1-25.14-9.86,35.14,35.14,0,0,1-11-24.31,31.44,31.44,0,0,1,0-8.34,35.09,35.09,0,0,1,11-24.31,36.78,36.78,0,0,1,25.14-9.87h52.24V211.1H105.32a21.64,21.64,0,0,0-21.67,20.28,23.69,23.69,0,0,0,0,7.23,21.62,21.62,0,0,0,21.67,20.28h20.85a36.57,36.57,0,0,1,13.75,2.64,35.15,35.15,0,0,1,11.39,7.37,37,37,0,0,1,7.78,11,34.74,34.74,0,0,1,3.2,13.48v8.34a33,33,0,0,1-2.92,13.89,36.76,36.76,0,0,1-7.92,11.25,37.2,37.2,0,0,1-11.53,7.65,35.52,35.52,0,0,1-14,2.77H72.26V322.8h53.63a21.88,21.88,0,0,0,21.67-18.34,11.81,11.81,0,0,1,.14-1.8,13.26,13.26,0,0,0,.14-1.81V295a21.93,21.93,0,0,0-6.67-15.29,20.9,20.9,0,0,0-15.28-6.39Z"/><path class="cls-1" d="M188.13,162.47h14.45v36.4h52.51v14.45H202.58v89.76A20.81,20.81,0,0,0,209,318.36a21.17,21.17,0,0,0,15.56,6.39,21.82,21.82,0,0,0,21.67-21.67h14.45a36.53,36.53,0,0,1-2.78,14.17,34.18,34.18,0,0,1-7.78,11.53,39.63,39.63,0,0,1-11.53,7.78,34.07,34.07,0,0,1-14,2.92,35,35,0,0,1-14.17-2.92A36.45,36.45,0,0,1,191,317.25a35.06,35.06,0,0,1-2.91-14.17Z"/><path class="cls-2" d="M345.4,194.71a71.52,71.52,0,0,1,28.34,5.69,72.17,72.17,0,0,1,38.77,38.77,71.49,71.49,0,0,1,5.69,28.34V337H403.47V311.13a69.54,69.54,0,0,1-24.86,21.12A71.58,71.58,0,0,1,345.4,340a70.5,70.5,0,0,1-28.2-5.69,72.91,72.91,0,0,1-38.63-38.63,70.32,70.32,0,0,1-5.69-28.2,71.31,71.31,0,0,1,5.69-28.34A72.54,72.54,0,0,1,317.2,200.4,70.5,70.5,0,0,1,345.4,194.71Zm0,14.72A55.84,55.84,0,0,0,322.89,214a60.45,60.45,0,0,0-18.48,12.36,57.84,57.84,0,0,0-17.08,41.13A55.83,55.83,0,0,0,291.91,290a58.95,58.95,0,0,0,31,31,56,56,0,0,0,22.51,4.58,57.75,57.75,0,0,0,41.12-17.09A60.43,60.43,0,0,0,398.89,290a55.83,55.83,0,0,0,4.58-22.51,56.89,56.89,0,0,0-4.58-22.65A57.2,57.2,0,0,0,368.05,214,56.9,56.9,0,0,0,345.4,209.43Z"/><path class="cls-1" d="M514.34,196.1a71.52,71.52,0,0,1,28.34,5.69,72.2,72.2,0,0,1,38.77,38.76,71.57,71.57,0,0,1,5.69,28.35V407.83H572.69V312.52a72.09,72.09,0,0,1-58.35,28.9,70.5,70.5,0,0,1-28.2-5.69,72.91,72.91,0,0,1-38.63-38.63,70.36,70.36,0,0,1-5.69-28.2,71.4,71.4,0,0,1,5.69-28.35,72.56,72.56,0,0,1,38.63-38.76A70.5,70.5,0,0,1,514.34,196.1Zm0,14.72a55.84,55.84,0,0,0-22.51,4.59,60.28,60.28,0,0,0-18.47,12.36,57.79,57.79,0,0,0-17.09,41.13,56,56,0,0,0,4.58,22.51,59,59,0,0,0,31,31A56,56,0,0,0,514.34,327,57.06,57.06,0,0,0,537,322.39a58.57,58.57,0,0,0,31.12-31,55.87,55.87,0,0,0,4.58-22.51,56.82,56.82,0,0,0-4.58-22.65,57.41,57.41,0,0,0-12.5-18.48A60,60,0,0,0,537,215.41,56.9,56.9,0,0,0,514.34,210.82Z"/><path class="cls-3" d="M688.57,195.82a70.53,70.53,0,0,1,28.2,5.69,74.47,74.47,0,0,1,23.06,15.43,72.26,72.26,0,0,1,21.26,51.4,69.43,69.43,0,0,1-5.7,28.07,73.34,73.34,0,0,1-38.62,38.48,70.37,70.37,0,0,1-28.2,5.7A72.09,72.09,0,0,1,662,335.73,70.85,70.85,0,0,1,639.94,322v80H616V268.34a72.26,72.26,0,0,1,21.26-51.4,74.47,74.47,0,0,1,23.06-15.43A70.54,70.54,0,0,1,688.57,195.82Zm0,23.89a48.77,48.77,0,0,0-44.88,67.53,46.79,46.79,0,0,0,10.42,15.42,51.56,51.56,0,0,0,15.56,10.42,47.83,47.83,0,0,0,37.79,0A51.44,51.44,0,0,0,723,302.66a46.64,46.64,0,0,0,10.42-15.42,48.57,48.57,0,0,0-44.87-67.53Z"/><path class="cls-3" d="M854.46,340.59a70.38,70.38,0,0,1-28.21-5.7,73.34,73.34,0,0,1-38.62-38.48,69.43,69.43,0,0,1-5.7-28.07,72.26,72.26,0,0,1,21.26-51.4,74.47,74.47,0,0,1,23.06-15.43,72.75,72.75,0,0,1,56.41,0A71.71,71.71,0,0,1,921,240a71.52,71.52,0,0,1,5.69,28.34v4.17q0,2.24-.55,7.5H807.5a45.32,45.32,0,0,0,6.39,14.73,52.49,52.49,0,0,0,10.56,11.67,46.45,46.45,0,0,0,13.75,7.78A47.23,47.23,0,0,0,854.46,317a28.68,28.68,0,0,0,13.33-3.47,56.33,56.33,0,0,0,12.79-9.31l16.67,16.67a79.2,79.2,0,0,1-20.15,14.31A50.6,50.6,0,0,1,854.46,340.59Zm47-84.2a56.43,56.43,0,0,0-6.53-14.59,47.21,47.21,0,0,0-10.42-11.67,49.23,49.23,0,0,0-13.76-7.64,48.91,48.91,0,0,0-32.51,0,48.17,48.17,0,0,0-24.31,19.31,47.54,47.54,0,0,0-6.39,14.59Z"/><path class="cls-3" d="M992.56,278.07A38.28,38.28,0,0,1,978,275.29a40,40,0,0,1-12.09-7.64,37.45,37.45,0,0,1-8.47-11.53,36,36,0,0,1-3.48-14.45,34.54,34.54,0,0,1,0-8.62,35.43,35.43,0,0,1,3.48-14.17A39,39,0,0,1,978,199.43a38.28,38.28,0,0,1,14.59-2.78h53.35v23.9H992.56a14.36,14.36,0,0,0-10.15,4,19.31,19.31,0,0,0-4.86,16,15,15,0,0,0,4.86,9.87,14.36,14.36,0,0,0,10.15,4h19.17a37.63,37.63,0,0,1,14.73,2.92,38.53,38.53,0,0,1,12.09,7.92,40.61,40.61,0,0,1,8.33,11.67,35.92,35.92,0,0,1,3.47,14.45v7.78a34.53,34.53,0,0,1-3.19,14.86,43.91,43.91,0,0,1-8.34,12.09,36.07,36.07,0,0,1-12.22,8.2,39.53,39.53,0,0,1-15.15,2.91H956.71V313.63h54.74A13.87,13.87,0,0,0,1021,310a17.83,17.83,0,0,0,5.42-8.61V300.3a2.94,2.94,0,0,1,.14-1,3.06,3.06,0,0,0,.14-1v-5.28a15.59,15.59,0,0,0-4.59-10.7,14.53,14.53,0,0,0-10.7-4.3Z"/><path class="cls-3" d="M1140.66,195a71.58,71.58,0,0,1,28.35,5.7,72.59,72.59,0,0,1,38.76,38.62,70.55,70.55,0,0,1,5.7,28.21V337h-24.18V321.42a73.83,73.83,0,0,1-22.09,13.47,71.92,71.92,0,0,1-26.54,4.86,69.51,69.51,0,0,1-28.06-5.69,75.22,75.22,0,0,1-22.93-15.42,72,72,0,0,1-15.56-22.93,72.75,72.75,0,0,1,0-56.41,73.32,73.32,0,0,1,38.49-38.62A69.52,69.52,0,0,1,1140.66,195Zm0,23.9a48.07,48.07,0,0,0-18.89,3.75,46.79,46.79,0,0,0-15.42,10.42,51.5,51.5,0,0,0-10.42,15.56,47.83,47.83,0,0,0,0,37.79,49,49,0,0,0,25.84,25.85,46.63,46.63,0,0,0,18.89,3.89,47.45,47.45,0,0,0,19.18-3.89,50.12,50.12,0,0,0,15.42-10.42,49.16,49.16,0,0,0,10.28-53.22,49.69,49.69,0,0,0-10.28-15.56,47,47,0,0,0-15.42-10.42A48.92,48.92,0,0,0,1140.66,218.88Z"/></svg>