<svg xmlns="http://www.w3.org/2000/svg" viewBox="0 0 828.86 182.84"><defs><style>.cls-1,.cls-3{fill:#1b75bc;}.cls-2{fill:#27aae1;}.cls-3{font-size:43.73px;font-family:TimeBurner-Bold, TimeBurner;font-weight:700;}.cls-4{letter-spacing:-0.03em;}.cls-5{letter-spacing:0em;}.cls-6{letter-spacing:-0.03em;}</style></defs><title>Asset 34</title><g id="Layer_2" data-name="Layer 2"><g id="Layer_1-2" data-name="Layer 1"><path class="cls-1" d="M26.35,80.25A26.66,26.66,0,0,1,8.14,73.11a25.68,25.68,0,0,1-5.63-7.85A25.1,25.1,0,0,1,.2,55.51a22.52,22.52,0,0,1,0-6,25.2,25.2,0,0,1,2.31-9.76,25.52,25.52,0,0,1,5.63-7.84,26.66,26.66,0,0,1,18.21-7.14H64.16V35.2H26.35a15.19,15.19,0,0,0-10.76,4.22,15.15,15.15,0,0,0-4.93,10.46,17,17,0,0,0,0,5.23,15.16,15.16,0,0,0,4.93,10.46,15.24,15.24,0,0,0,10.76,4.22H41.43a26.46,26.46,0,0,1,10,1.91A25.54,25.54,0,0,1,59.63,77,26.6,26.6,0,0,1,65.26,85a25.2,25.2,0,0,1,2.32,9.76v6a23.93,23.93,0,0,1-2.12,10.06A26.45,26.45,0,0,1,59.73,119a26.86,26.86,0,0,1-8.34,5.53,25.55,25.55,0,0,1-10.16,2H2.41V116.05H41.23a15.83,15.83,0,0,0,15.69-13.28,9,9,0,0,1,.1-1.31,10.26,10.26,0,0,0,.1-1.3V95.93a15.89,15.89,0,0,0-4.83-11.06,15.11,15.11,0,0,0-11.06-4.62Z"/><path class="cls-1" d="M86.28,0H96.74V26.35h38V36.8h-38v65a15.1,15.1,0,0,0,4.62,11.06,15.29,15.29,0,0,0,11.26,4.62,15.77,15.77,0,0,0,15.69-15.68h10.46a26.35,26.35,0,0,1-2,10.25,24.77,24.77,0,0,1-5.63,8.35,28.69,28.69,0,0,1-8.35,5.63,24.59,24.59,0,0,1-10.16,2.11A25.21,25.21,0,0,1,102.37,126a26.37,26.37,0,0,1-14-14,25.21,25.21,0,0,1-2.11-10.25Z"/><path class="cls-1" d="M200.11,23.33a51.79,51.79,0,0,1,20.51,4.12,52.29,52.29,0,0,1,28.06,28.06A51.65,51.65,0,0,1,252.8,76V126.3H242.15V107.6a50.42,50.42,0,0,1-18,15.28,51.76,51.76,0,0,1-24,5.64,50.9,50.9,0,0,1-20.41-4.13,52.76,52.76,0,0,1-28-27.95A51,51,0,0,1,147.62,76a51.65,51.65,0,0,1,4.12-20.51,52.56,52.56,0,0,1,28-28.06A51.06,51.06,0,0,1,200.11,23.33Zm0,10.66a40.46,40.46,0,0,0-16.29,3.32,43.69,43.69,0,0,0-13.37,8.95A41.75,41.75,0,0,0,158.08,76a40.45,40.45,0,0,0,3.31,16.29,42.7,42.7,0,0,0,22.43,22.43,40.46,40.46,0,0,0,16.29,3.32,41.9,41.9,0,0,0,29.77-12.37,43.92,43.92,0,0,0,9-13.38A40.46,40.46,0,0,0,242.15,76a41.22,41.22,0,0,0-3.32-16.39A41.39,41.39,0,0,0,216.5,37.31,41.22,41.22,0,0,0,200.11,34Z"/><path class="cls-1" d="M322.39,24.33a51.62,51.62,0,0,1,20.51,4.13A52.23,52.23,0,0,1,371,56.51,51.7,51.7,0,0,1,375.08,77V177.59H364.62v-69a52.2,52.2,0,0,1-42.23,20.91A50.89,50.89,0,0,1,302,125.4a52.73,52.73,0,0,1-28-28A50.89,50.89,0,0,1,269.9,77,51.7,51.7,0,0,1,274,56.51a52.49,52.49,0,0,1,28-28A50.9,50.9,0,0,1,322.39,24.33Zm0,10.67a40.45,40.45,0,0,0-16.29,3.31,43.92,43.92,0,0,0-13.38,8.95A41.9,41.9,0,0,0,280.35,77a40.46,40.46,0,0,0,3.32,16.29,42.7,42.7,0,0,0,22.43,22.43,40.45,40.45,0,0,0,16.29,3.31,41.21,41.21,0,0,0,16.39-3.31,42.43,42.43,0,0,0,22.53-22.43A40.45,40.45,0,0,0,364.62,77a41.84,41.84,0,0,0-12.36-29.77,43.78,43.78,0,0,0-13.48-8.95A41.21,41.21,0,0,0,322.39,35Z"/><path class="cls-2" d="M448.49,24.13a51,51,0,0,1,20.42,4.13A54.17,54.17,0,0,1,485.6,39.42,52.27,52.27,0,0,1,501,76.63a50.2,50.2,0,0,1-4.12,20.31,53.06,53.06,0,0,1-27.95,27.85,51,51,0,0,1-20.42,4.13,52.16,52.16,0,0,1-19.21-3.52,51.39,51.39,0,0,1-16-10v57.93H396V76.63a52.27,52.27,0,0,1,15.38-37.21,54.09,54.09,0,0,1,16.7-11.16A50.9,50.9,0,0,1,448.49,24.13Zm0,17.3A35.28,35.28,0,0,0,416,90.3a33.6,33.6,0,0,0,7.54,11.16A37.16,37.16,0,0,0,434.82,109a34.68,34.68,0,0,0,27.35,0,37.23,37.23,0,0,0,11.26-7.55A33.6,33.6,0,0,0,481,90.3a35.15,35.15,0,0,0-32.48-48.87Z"/><path class="cls-2" d="M568.56,128.92a50.9,50.9,0,0,1-20.41-4.13,53,53,0,0,1-28-27.85,50.2,50.2,0,0,1-4.12-20.31,52.27,52.27,0,0,1,15.38-37.21,54.09,54.09,0,0,1,16.7-11.16,52.5,52.5,0,0,1,40.82,0,51.77,51.77,0,0,1,27.76,27.85,51.7,51.7,0,0,1,4.12,20.52v3c0,1.08-.13,2.89-.4,5.43H534.57a32.87,32.87,0,0,0,4.63,10.66,38,38,0,0,0,7.64,8.45,34,34,0,0,0,21.72,7.64,20.64,20.64,0,0,0,9.65-2.51,40.63,40.63,0,0,0,9.26-6.74l12.06,12.07A57.34,57.34,0,0,1,585,125,36.68,36.68,0,0,1,568.56,128.92Zm34-60.94a40.42,40.42,0,0,0-4.73-10.56A33.94,33.94,0,0,0,590.28,49a35.38,35.38,0,0,0-9.95-5.53,35.47,35.47,0,0,0-23.54,0,34.83,34.83,0,0,0-17.59,14A34.52,34.52,0,0,0,534.57,68Z"/><path class="cls-2" d="M668.52,83.67a27.65,27.65,0,0,1-10.56-2,28.73,28.73,0,0,1-8.75-5.54,27,27,0,0,1-6.14-8.34,26.08,26.08,0,0,1-2.51-10.46,24.44,24.44,0,0,1,0-6.24,25.58,25.58,0,0,1,2.51-10.25,28.36,28.36,0,0,1,6.14-8.45,27.74,27.74,0,0,1,19.31-7.64h38.61V42H668.52A10.39,10.39,0,0,0,661.18,45a11,11,0,0,0-3.52,7.34,11.09,11.09,0,0,0,0,4.22,10.83,10.83,0,0,0,3.52,7.14,10.35,10.35,0,0,0,7.34,2.92h13.87a27.18,27.18,0,0,1,10.66,2.11,27.86,27.86,0,0,1,8.75,5.74,29.47,29.47,0,0,1,6,8.44,26.25,26.25,0,0,1,2.51,10.46V99A25,25,0,0,1,708,109.71a31.85,31.85,0,0,1-6,8.75,25.86,25.86,0,0,1-8.85,5.93,28.42,28.42,0,0,1-11,2.11H642.57V109.41h39.62a10,10,0,0,0,6.94-2.62,12.88,12.88,0,0,0,3.92-6.23v-.8a2.17,2.17,0,0,1,.1-.71,2.11,2.11,0,0,0,.1-.7V94.53a11.26,11.26,0,0,0-3.31-7.75,10.55,10.55,0,0,0-7.75-3.11Z"/><path class="cls-2" d="M775.71,23.53a51.87,51.87,0,0,1,20.52,4.12,52.58,52.58,0,0,1,28,28A50.93,50.93,0,0,1,828.41,76V126.3h-17.5V115a53.32,53.32,0,0,1-16,9.75,52,52,0,0,1-19.21,3.53,50.21,50.21,0,0,1-20.31-4.13A54.25,54.25,0,0,1,738.81,113a51.92,51.92,0,0,1-11.27-16.59,52.64,52.64,0,0,1,0-40.83,53.19,53.19,0,0,1,27.86-28A50.37,50.37,0,0,1,775.71,23.53Zm0,17.3A34.81,34.81,0,0,0,762,43.54a33.9,33.9,0,0,0-11.17,7.54,37.44,37.44,0,0,0-7.54,11.27,34.68,34.68,0,0,0,0,27.35A35.41,35.41,0,0,0,762,108.4a33.7,33.7,0,0,0,13.67,2.82,34.21,34.21,0,0,0,13.88-2.82,35.91,35.91,0,0,0,11.16-7.54,35.53,35.53,0,0,0,7.44-38.51,35.91,35.91,0,0,0-7.44-11.27,34,34,0,0,0-11.16-7.54A35.35,35.35,0,0,0,775.71,40.83Z"/><text class="cls-3" transform="translate(461.85 168.54)">think <tspan class="cls-4" x="101.29" y="0">c</tspan><tspan class="cls-5" x="121.32" y="0">on</tspan><tspan class="cls-6" x="174.89" y="0">s</tspan><tspan class="cls-5" x="193.17" y="0">olidation</tspan></text></g></g></svg>